<svg width="60" height="60" viewBox="0 0 60 60" fill="none" xmlns="http://www.w3.org/2000/svg">
<path fill-rule="evenodd" clip-rule="evenodd" d="M39.5059 24.4308H20.4954C20.4556 24.4309 20.4174 24.4468 20.3893 24.475C20.3611 24.5031 20.3452 24.5413 20.3451 24.5811V40.1299C20.3456 40.1696 20.3615 40.2076 20.3896 40.2357C20.4177 40.2637 20.4557 40.2797 20.4954 40.2802H39.5059C39.5456 40.2796 39.5835 40.2636 39.6117 40.2355C39.6399 40.2075 39.656 40.1696 39.6569 40.1299V24.5811C39.6564 24.5413 39.6403 24.5032 39.6121 24.4751C39.5838 24.447 39.5457 24.4311 39.5059 24.4308ZM30.888 34.0042V35.9034C30.888 36.1389 30.7945 36.3648 30.6279 36.5313C30.4614 36.6978 30.2355 36.7914 30 36.7914C29.7645 36.7914 29.5386 36.6978 29.3721 36.5313C29.2056 36.3648 29.112 36.1389 29.112 35.9034V34.0042C28.3978 33.791 27.7842 33.3278 27.3834 32.6994C26.9825 32.0709 26.8213 31.3192 26.929 30.5817C27.0368 29.8441 27.4064 29.17 27.9703 28.6826C28.5342 28.1951 29.2546 27.9268 30 27.9268C30.7454 27.9268 31.4659 28.1951 32.0297 28.6826C32.5936 29.17 32.9632 29.8441 33.071 30.5817C33.1787 31.3192 33.0175 32.0709 32.6166 32.6994C32.2158 33.3278 31.6022 33.791 30.888 34.0042ZM29.851 32.3482C29.5127 32.3101 29.2019 32.144 28.9824 31.884C28.7628 31.624 28.651 31.2898 28.6701 30.95C28.6892 30.6101 28.8376 30.2905 29.0849 30.0567C29.3322 29.8229 29.6597 29.6926 30 29.6926C30.3404 29.6926 30.6678 29.8229 30.9151 30.0567C31.1624 30.2905 31.3108 30.6101 31.3299 30.95C31.349 31.2898 31.2373 31.624 31.0177 31.884C30.7981 32.144 30.4873 32.3101 30.1491 32.3482C30.0503 32.3322 29.9497 32.3322 29.851 32.3482ZM25.4223 14.8623C26.3288 13.9583 27.4828 13.3428 28.7386 13.0937C29.9944 12.8446 31.2958 12.9729 32.4788 13.4624C33.6618 13.952 34.6733 14.7809 35.3859 15.8446C36.0984 16.9083 36.48 18.1591 36.4825 19.4394V22.6541H38.2592V19.4394C38.2592 17.2489 37.389 15.1482 35.8401 13.5993C34.2912 12.0504 32.1905 11.1802 30 11.1802C27.8095 11.1802 25.7088 12.0504 24.1599 13.5993C22.611 15.1482 21.7409 17.2489 21.7409 19.4394V22.6541H23.5175V19.4394C23.5179 18.5886 23.6865 17.7463 24.0133 16.9609C24.3402 16.1754 24.8191 15.4622 25.4223 14.8623Z" fill="#1DBD97"/>
<path d="M14.021 22.0686L13.9629 22.1255L16.3256 26.2181H18.5684V27.9947H15.8153C15.6486 27.9948 15.4853 27.9479 15.344 27.8594C15.2027 27.7709 15.0892 27.6445 15.0164 27.4945L12.4212 22.9996C11.5754 23.2318 10.6739 23.1482 9.88515 22.7646C9.09638 22.3809 8.47416 21.7233 8.13464 20.9146C7.79512 20.1058 7.76149 19.2011 8.04004 18.3694C8.31858 17.5377 8.89026 16.8357 9.64838 16.3945C10.4065 15.9534 11.2993 15.8032 12.16 15.9719C13.0208 16.1407 13.7907 16.6169 14.3261 17.3116C14.8615 18.0064 15.1258 18.8723 15.0697 19.7476C15.0135 20.6229 14.6408 21.4479 14.021 22.0686Z" fill="#1547BA"/>
<path d="M5.66522 28.7676C6.45653 28.8705 7.19155 29.2323 7.75574 29.7966H7.75827C8.21909 30.2577 8.54647 30.835 8.70564 31.4672H18.5684V33.2438H8.70311C8.50655 34.0172 8.05967 34.7038 7.43212 35.1967C6.80457 35.6896 6.03159 35.961 5.23366 35.9687C4.43572 35.9765 3.65765 35.72 3.02069 35.2393C2.38374 34.7586 1.92368 34.0808 1.71222 33.3113C1.50076 32.5419 1.54976 31.7241 1.85161 30.9854C2.15345 30.2467 2.69118 29.6286 3.38098 29.2275C4.07078 28.8263 4.87392 28.6646 5.66522 28.7676Z" fill="#1547BA"/>
<path d="M9.16704 42.4038C9.81414 41.8728 10.6254 41.5825 11.4625 41.5825V41.5844C11.7863 41.5836 12.1087 41.6261 12.4212 41.7107L15.0164 37.2164C15.0892 37.0665 15.2027 36.94 15.344 36.8516C15.4853 36.7631 15.6486 36.7162 15.8153 36.7162H18.5684V38.4928H16.3256L13.9629 42.5855L14.021 42.6423C14.6129 43.2343 14.9813 44.0131 15.0634 44.8462C15.1454 45.6793 14.9361 46.5151 14.471 47.2111C14.0059 47.9071 13.3139 48.4204 12.5128 48.6634C11.7117 48.9064 10.8512 48.8641 10.0778 48.5437C9.30438 48.2234 8.66599 47.6448 8.27138 46.9065C7.87677 46.1682 7.75036 45.316 7.91367 44.4949C8.07699 43.6739 8.51994 42.9349 9.16704 42.4038Z" fill="#1547BA"/>
<path d="M44.9348 44.9585C44.9902 44.0853 45.3612 43.2621 45.9789 42.6423L46.0357 42.5855L43.673 38.4929H41.4315V36.7162H44.1846C44.3513 36.7162 44.5146 36.7631 44.6559 36.8516C44.7972 36.94 44.9107 37.0665 44.9835 37.2164L47.5787 41.7108C48.4225 41.4795 49.3216 41.563 50.1084 41.9459C50.8951 42.3287 51.5157 42.9847 51.8543 43.7915C52.193 44.5982 52.2266 45.5006 51.9488 46.3303C51.6711 47.16 51.101 47.8603 50.3449 48.3006C49.5888 48.7409 48.6984 48.8911 47.8397 48.7231C46.981 48.5552 46.2128 48.0806 45.6783 47.3879C45.1438 46.6952 44.8795 45.8317 44.9348 44.9585Z" fill="#1547BA"/>
<path d="M54.3351 35.9433C53.5436 35.8402 52.8084 35.4782 52.2442 34.9137H52.2416C51.781 34.4528 51.4536 33.8757 51.2943 33.2438H41.4315V31.4672H51.2968C51.4932 30.6936 51.94 30.0066 52.5677 29.5135C53.1953 29.0204 53.9684 28.7487 54.7665 28.7409C55.5647 28.7331 56.343 28.9895 56.9801 29.4703C57.6173 29.951 58.0775 30.629 58.2891 31.3986C58.5006 32.1683 58.4516 32.9863 58.1497 33.7251C57.8478 34.464 57.3099 35.0822 56.6199 35.4834C55.9299 35.8847 55.1266 36.0464 54.3351 35.9433Z" fill="#1547BA"/>
<path d="M50.8329 22.3065C50.1858 22.8376 49.3745 23.1278 48.5374 23.1278C48.2124 23.1285 47.8889 23.0852 47.5755 22.999L44.9911 27.4756C44.9204 27.6305 44.8066 27.7617 44.6634 27.8538C44.5202 27.9458 44.3536 27.9948 44.1833 27.9948H41.4315V26.2181H43.6762L46.0383 22.1268L45.9789 22.068C45.387 21.4761 45.0186 20.6972 44.9365 19.8641C44.8545 19.031 45.0638 18.1953 45.5289 17.4993C45.994 16.8032 46.686 16.29 47.4871 16.047C48.2882 15.804 49.1487 15.8463 49.9221 16.1666C50.6955 16.487 51.3339 17.0656 51.7285 17.8038C52.1231 18.5421 52.2495 19.3944 52.0862 20.2154C51.9229 21.0364 51.48 21.7754 50.8329 22.3065Z" fill="#1547BA"/>
</svg>
