<svg width="48" height="48" viewBox="0 0 48 48" fill="none" xmlns="http://www.w3.org/2000/svg">
<path d="M40 38V32H14C10.6863 32 8 34.6863 8 38M17.6 44H33.6C35.8402 44 36.9603 44 37.816 43.564C38.5686 43.1805 39.1805 42.5686 39.564 41.816C40 40.9603 40 39.8402 40 37.6V10.4C40 8.15979 40 7.03968 39.564 6.18404C39.1805 5.43139 38.5686 4.81947 37.816 4.43597C36.9603 4 35.8402 4 33.6 4H17.6C14.2397 4 12.5595 4 11.2761 4.65396C10.1471 5.2292 9.2292 6.14708 8.65396 7.27606C8 8.55953 8 10.2397 8 13.6V34.4C8 37.7603 8 39.4405 8.65396 40.7239C9.2292 41.8529 10.1471 42.7708 11.2761 43.346C12.5595 44 14.2397 44 17.6 44Z" stroke="#194AB9" stroke-width="3" stroke-linecap="round" stroke-linejoin="round"/>
</svg>
