<svg width="56" height="56" viewBox="0 0 56 56" fill="none" xmlns="http://www.w3.org/2000/svg">
<circle opacity="0.2" cx="28" cy="28" r="27.5" fill="#0CBDEF" stroke="#194AB9"/>
<path fill-rule="evenodd" clip-rule="evenodd" d="M22.62 26.79C24.06 29.62 26.38 31.93 29.21 33.38L31.41 31.18C31.68 30.91 32.08 30.82 32.43 30.94C33.55 31.31 34.76 31.51 36 31.51C36.55 31.51 37 31.96 37 32.51V36C37 36.55 36.55 37 36 37C26.61 37 19 29.39 19 20C19 19.45 19.45 19 20 19H23.5C24.05 19 24.5 19.45 24.5 20C24.5 21.25 24.7 22.45 25.07 23.57C25.18 23.92 25.1 24.31 24.82 24.59L22.62 26.79Z" fill="white"/>
</svg>
