<svg width="24" height="24" viewBox="0 0 24 24" fill="none" xmlns="http://www.w3.org/2000/svg">
<path d="M15.4563 10.441C14.9842 10.5025 14.3599 10.7571 13.9083 11.2086C13.4069 11.7099 12.6394 10.9503 13.1446 10.4449C13.729 9.86072 14.4612 9.4988 15.2451 9.37688C14.6179 7.99328 13.2382 7.02344 11.6203 7.02344C9.42266 7.02344 7.50578 8.83448 7.65146 11.2549C5.77106 11.2549 4.64978 12.6615 4.64978 14.1154C4.64978 15.6886 5.93714 16.976 7.51034 16.976C11.0311 16.976 10.4407 16.976 16.0699 16.976C17.8815 16.976 19.3498 15.5077 19.3498 13.6962C19.35 11.4894 17.3803 10.1907 15.4563 10.441Z" fill="#1DBD97"/>
<path d="M20.64 21.9562C21.4352 21.9562 22.08 21.3115 22.08 20.5162C22.08 19.7209 21.4352 19.0762 20.64 19.0762C19.8447 19.0762 19.2 19.7209 19.2 20.5162C19.2 21.3115 19.8447 21.9562 20.64 21.9562Z" fill="#1547BA"/>
<path d="M3.36004 21.9562C4.15533 21.9562 4.80004 21.3115 4.80004 20.5162C4.80004 19.7209 4.15533 19.0762 3.36004 19.0762C2.56475 19.0762 1.92004 19.7209 1.92004 20.5162C1.92004 21.3115 2.56475 21.9562 3.36004 21.9562Z" fill="#1547BA"/>
<path d="M20.64 4.92395C21.4352 4.92395 22.08 4.27924 22.08 3.48395C22.08 2.68866 21.4352 2.04395 20.64 2.04395C19.8447 2.04395 19.2 2.68866 19.2 3.48395C19.2 4.27924 19.8447 4.92395 20.64 4.92395Z" fill="#1547BA"/>
<path d="M3.36004 4.92395C4.15533 4.92395 4.80004 4.27924 4.80004 3.48395C4.80004 2.68866 4.15533 2.04395 3.36004 2.04395C2.56475 2.04395 1.92004 2.68866 1.92004 3.48395C1.92004 4.27924 2.56475 4.92395 3.36004 4.92395Z" fill="#1547BA"/>
<path d="M18.1883 19.955H14.5199V18.0566H13.4399V20.495C13.4399 20.7931 13.6819 21.035 13.9799 21.035H18.1747C18.0923 20.6434 18.107 20.3086 18.1883 19.955Z" fill="#1547BA"/>
<path d="M9.48005 18.0566V19.955H5.81165C5.89277 20.3086 5.90741 20.6436 5.82533 21.035H10.02C10.3181 21.035 10.56 20.7931 10.56 20.495V18.0566H9.48005Z" fill="#1547BA"/>
<path d="M18.1747 2.96484H13.9799C13.6819 2.96484 13.4399 3.20676 13.4399 3.50484V6.29964C13.8227 6.4494 14.1847 6.64212 14.5199 6.879V4.04484H18.1883C18.107 3.69132 18.0923 3.35652 18.1747 2.96484Z" fill="#1547BA"/>
<path d="M10.02 2.96484H5.82533C5.90765 3.35628 5.89277 3.69132 5.81165 4.04484H9.48005V6.4242C9.82541 6.2634 10.1866 6.13812 10.56 6.05772V3.50484C10.56 3.20676 10.3181 2.96484 10.02 2.96484Z" fill="#1547BA"/>
</svg>
