<svg width="60" height="60" viewBox="0 0 60 60" fill="none" xmlns="http://www.w3.org/2000/svg">
<g id="noun-cloud-service-4026693 1">
<path id="Vector" d="M38.6406 26.103C37.4604 26.2566 35.8998 26.8932 34.7706 28.0218C33.5172 29.2752 31.5984 27.3762 32.8614 26.1126C34.3224 24.6522 36.153 23.7474 38.1126 23.4426C36.5448 19.9836 33.0954 17.559 29.0508 17.559C23.5566 17.559 18.7644 22.0866 19.1286 28.1376C14.4276 28.1376 11.6244 31.6542 11.6244 35.289C11.6244 39.222 14.8428 42.4404 18.7758 42.4404C27.5778 42.4404 26.1018 42.4404 40.1748 42.4404C44.7036 42.4404 48.3744 38.7696 48.3744 34.2408C48.375 28.7238 43.4508 25.4772 38.6406 26.103Z" fill="#1DBD97"/>
<path id="Vector_2" d="M51.6 54.891C53.5882 54.891 55.2 53.2793 55.2 51.291C55.2 49.3028 53.5882 47.691 51.6 47.691C49.6118 47.691 48 49.3028 48 51.291C48 53.2793 49.6118 54.891 51.6 54.891Z" fill="#1547BA"/>
<path id="Vector_3" d="M8.39999 54.891C10.3882 54.891 12 53.2793 12 51.291C12 49.3028 10.3882 47.691 8.39999 47.691C6.41176 47.691 4.79999 49.3028 4.79999 51.291C4.79999 53.2793 6.41176 54.891 8.39999 54.891Z" fill="#1547BA"/>
<path id="Vector_4" d="M51.6 12.309C53.5882 12.309 55.2 10.6972 55.2 8.70901C55.2 6.72078 53.5882 5.10901 51.6 5.10901C49.6118 5.10901 48 6.72078 48 8.70901C48 10.6972 49.6118 12.309 51.6 12.309Z" fill="#1547BA"/>
<path id="Vector_5" d="M8.39999 12.309C10.3882 12.309 12 10.6972 12 8.70901C12 6.72078 10.3882 5.10901 8.39999 5.10901C6.41176 5.10901 4.79999 6.72078 4.79999 8.70901C4.79999 10.6972 6.41176 12.309 8.39999 12.309Z" fill="#1547BA"/>
<path id="Vector_6" d="M45.471 49.887H36.3V45.141H33.6V51.237C33.6 51.9822 34.2048 52.587 34.95 52.587H45.4368C45.231 51.6078 45.2676 50.7708 45.471 49.887Z" fill="#1547BA"/>
<path id="Vector_7" d="M23.7 45.1404V49.8864H14.529C14.7318 50.7702 14.7684 51.6078 14.5632 52.5864H25.05C25.7952 52.5864 26.4 51.9816 26.4 51.2364V45.1404H23.7Z" fill="#1547BA"/>
<path id="Vector_8" d="M45.4368 7.41302H34.95C34.2048 7.41302 33.6 8.01782 33.6 8.76302V15.75C34.557 16.1244 35.4618 16.6062 36.3 17.1984V10.113H45.471C45.2676 9.22922 45.231 8.39222 45.4368 7.41302Z" fill="#1547BA"/>
<path id="Vector_9" d="M25.05 7.41302H14.5632C14.769 8.39162 14.7318 9.22922 14.529 10.113H23.7V16.0614C24.5634 15.6594 25.4664 15.3462 26.4 15.1452V8.76302C26.4 8.01782 25.7952 7.41302 25.05 7.41302Z" fill="#1547BA"/>
</g>
</svg>
