<svg width="24" height="24" viewBox="0 0 24 24" fill="none" xmlns="http://www.w3.org/2000/svg">
<path fill-rule="evenodd" clip-rule="evenodd" d="M15.8024 9.77189H8.19819C8.18226 9.77196 8.16701 9.77831 8.15575 9.78957C8.14448 9.80083 8.13813 9.81609 8.13806 9.83201V16.0516C8.13826 16.0674 8.14466 16.0826 8.15589 16.0938C8.16712 16.1051 8.1823 16.1115 8.19819 16.1117H15.8024C15.8183 16.1114 15.8335 16.105 15.8447 16.0938C15.856 16.0826 15.8625 16.0674 15.8628 16.0516V9.83201C15.8626 9.81609 15.8561 9.80087 15.8449 9.78963C15.8336 9.77839 15.8183 9.77202 15.8024 9.77189ZM12.3552 13.6013V14.3609C12.3552 14.4551 12.3178 14.5455 12.2512 14.6121C12.1846 14.6787 12.0942 14.7161 12 14.7161C11.9058 14.7161 11.8155 14.6787 11.7489 14.6121C11.6823 14.5455 11.6448 14.4551 11.6448 14.3609V13.6013C11.3592 13.516 11.1137 13.3307 10.9534 13.0793C10.7931 12.828 10.7285 12.5273 10.7717 12.2323C10.8148 11.9372 10.9626 11.6676 11.1881 11.4726C11.4137 11.2776 11.7019 11.1703 12 11.1703C12.2982 11.1703 12.5864 11.2776 12.8119 11.4726C13.0375 11.6676 13.1853 11.9372 13.2284 12.2323C13.2715 12.5273 13.207 12.828 13.0467 13.0793C12.8864 13.3307 12.6409 13.516 12.3552 13.6013ZM11.9404 12.9389C11.8051 12.9236 11.6808 12.8572 11.593 12.7532C11.5051 12.6492 11.4604 12.5155 11.4681 12.3796C11.4757 12.2436 11.5351 12.1158 11.634 12.0223C11.7329 11.9287 11.8639 11.8766 12 11.8766C12.1362 11.8766 12.2672 11.9287 12.3661 12.0223C12.465 12.1158 12.5244 12.2436 12.532 12.3796C12.5396 12.5155 12.4949 12.6492 12.4071 12.7532C12.3193 12.8572 12.1949 12.9236 12.0597 12.9389C12.0202 12.9325 11.9799 12.9325 11.9404 12.9389ZM10.169 5.94452C10.5316 5.58289 10.9931 5.33672 11.4955 5.23707C11.9978 5.13741 12.5184 5.18873 12.9916 5.38456C13.4648 5.58038 13.8694 5.91193 14.1544 6.33741C14.4394 6.76289 14.592 7.26323 14.593 7.77534V9.06124H15.3037V7.77534C15.3037 6.89916 14.9556 6.05886 14.3361 5.4393C13.7165 4.81974 12.8762 4.47168 12 4.47168C11.1239 4.47168 10.2836 4.81974 9.664 5.4393C9.04444 6.05886 8.69638 6.89916 8.69638 7.77534V9.06124H9.40703V7.77534C9.40721 7.43503 9.47462 7.09811 9.60537 6.78393C9.73613 6.46974 9.92766 6.18448 10.169 5.94452Z" fill="#1DBD97"/>
<path d="M5.6084 8.82701L5.58516 8.84975L6.53025 10.4868H7.42735V11.1975H6.32613C6.25945 11.1975 6.19412 11.1787 6.1376 11.1433C6.08108 11.1079 6.03567 11.0574 6.00655 10.9974L4.96849 9.19939C4.63015 9.29227 4.26957 9.25885 3.95406 9.10539C3.63855 8.95192 3.38966 8.68889 3.25386 8.36539C3.11805 8.04188 3.1046 7.68001 3.21601 7.34732C3.32743 7.01462 3.55611 6.73384 3.85935 6.55738C4.1626 6.38091 4.5197 6.32082 4.864 6.38832C5.2083 6.45583 5.51627 6.64631 5.73044 6.92422C5.9446 7.20212 6.05032 7.54847 6.02786 7.8986C6.00541 8.24874 5.85631 8.57874 5.6084 8.82701Z" fill="#1547BA"/>
<path d="M2.26609 11.5066C2.58261 11.5478 2.87662 11.6925 3.1023 11.9182H3.10331C3.28764 12.1027 3.41859 12.3336 3.48226 12.5864H7.42735V13.2971H3.48124C3.40262 13.6064 3.22387 13.8811 2.97285 14.0782C2.72183 14.2754 2.41264 14.384 2.09346 14.3871C1.77429 14.3901 1.46306 14.2876 1.20828 14.0953C0.953495 13.903 0.769473 13.6319 0.684887 13.3241C0.600302 13.0163 0.619906 12.6892 0.740644 12.3937C0.861382 12.0982 1.07647 11.851 1.35239 11.6905C1.62831 11.5301 1.94957 11.4654 2.26609 11.5066Z" fill="#1547BA"/>
<path d="M3.66682 16.9611C3.92566 16.7487 4.25015 16.6326 4.58499 16.6326V16.6333C4.7145 16.633 4.84348 16.65 4.96849 16.6839L6.00655 14.8861C6.03567 14.8261 6.08108 14.7756 6.1376 14.7402C6.19412 14.7048 6.25945 14.686 6.32613 14.686H7.42735V15.3967H6.53025L5.58516 17.0338L5.6084 17.0565C5.84517 17.2933 5.99252 17.6048 6.02534 17.938C6.05816 18.2713 5.97442 18.6056 5.78839 18.884C5.60236 19.1624 5.32554 19.3677 5.00512 19.4649C4.68469 19.5621 4.34047 19.5452 4.03111 19.4171C3.72175 19.2889 3.4664 19.0575 3.30855 18.7622C3.15071 18.4668 3.10014 18.1259 3.16547 17.7975C3.2308 17.4691 3.40797 17.1735 3.66682 16.9611Z" fill="#1547BA"/>
<path d="M17.974 17.9834C17.9961 17.6341 18.1445 17.3048 18.3916 17.0569L18.4143 17.0342L17.4692 15.3971H16.5726V14.6865H17.6739C17.7405 14.6865 17.8059 14.7052 17.8624 14.7406C17.9189 14.776 17.9643 14.8266 17.9934 14.8866L19.0315 16.6843C19.369 16.5918 19.7287 16.6252 20.0434 16.7783C20.3581 16.9315 20.6063 17.1939 20.7418 17.5166C20.8772 17.8393 20.8906 18.2002 20.7796 18.5321C20.6685 18.864 20.4404 19.1441 20.138 19.3202C19.8355 19.4963 19.4794 19.5564 19.1359 19.4892C18.7924 19.422 18.4851 19.2322 18.2713 18.9551C18.0575 18.678 17.9518 18.3326 17.974 17.9834Z" fill="#1547BA"/>
<path d="M21.7341 14.3773C21.4175 14.3361 21.1234 14.1913 20.8977 13.9655H20.8967C20.7124 13.7811 20.5815 13.5503 20.5177 13.2975H16.5726V12.5868H20.5187C20.5973 12.2774 20.776 12.0026 21.0271 11.8054C21.2781 11.6081 21.5874 11.4995 21.9066 11.4963C22.2259 11.4932 22.5372 11.5958 22.7921 11.7881C23.0469 11.9804 23.231 12.2516 23.3157 12.5594C23.4003 12.8673 23.3807 13.1945 23.2599 13.49C23.1391 13.7856 22.924 14.0329 22.648 14.1934C22.372 14.3538 22.0506 14.4185 21.7341 14.3773Z" fill="#1547BA"/>
<path d="M20.3332 8.92258C20.0743 9.135 19.7498 9.2511 19.415 9.2511C19.285 9.25139 19.1556 9.23405 19.0302 9.19956L17.9965 10.9902C17.9682 11.0522 17.9227 11.1047 17.8654 11.1415C17.8081 11.1783 17.7414 11.1979 17.6733 11.1979H16.5726V10.4872H17.4705L18.4153 8.85068L18.3916 8.82718C18.1548 8.59041 18.0075 8.27886 17.9746 7.94563C17.9418 7.6124 18.0256 7.27809 18.2116 6.99968C18.3976 6.72126 18.6744 6.51596 18.9949 6.41877C19.3153 6.32157 19.6595 6.33848 19.9689 6.46662C20.2782 6.59476 20.5336 6.8262 20.6914 7.12151C20.8493 7.41682 20.8998 7.75773 20.8345 8.08614C20.7692 8.41455 20.592 8.71015 20.3332 8.92258Z" fill="#1547BA"/>
</svg>
