<svg width="48" height="48" viewBox="0 0 48 48" fill="none" xmlns="http://www.w3.org/2000/svg">
<path d="M8 26H39.1741C40.099 26 40.5615 26 40.8257 25.806C41.056 25.6369 41.203 25.3773 41.2295 25.0928C41.2599 24.7665 41.0219 24.3699 40.5461 23.5768L36.4939 16.8232C36.3143 16.5239 36.2245 16.3742 36.1895 16.2145C36.1584 16.0732 36.1584 15.9268 36.1895 15.7855C36.2245 15.6258 36.3143 15.4761 36.4939 15.1768L40.5461 8.42319C41.022 7.63005 41.2599 7.23349 41.2295 6.90719C41.203 6.62267 41.056 6.36309 40.8257 6.19396C40.5615 6 40.099 6 39.1741 6H8L8 42" stroke="#194AB9" stroke-width="3" stroke-linecap="round" stroke-linejoin="round"/>
</svg>
