<svg width="140" height="140" viewBox="0 0 140 140" fill="none" xmlns="http://www.w3.org/2000/svg">
<path d="M42.9297 75.9998H103.184C104.285 74.1918 105 71.62 105 67.9997C105 58.4745 91.946 56.6613 83.8462 59.1033C83.2357 59.2874 82.5864 58.9062 82.4647 58.2803C80.5399 48.3758 72.6527 35.1621 58.3641 35.1621C47.0206 35.1621 39.7103 41.4998 36.8202 48.2376C33.0618 56.9998 35.2867 68.2921 41.992 75.9285L42.9297 75.9998Z" fill="url(#paint0_linear_278_12680)"/>
<path d="M32.3635 79.6434C23.2209 69.2616 21.3948 54.2902 27.7719 41.997C34.149 29.7039 47.4086 22.6345 61.1141 24.2207C74.8194 25.807 86.1327 35.7205 89.5615 49.1483H94.8066C103.886 49.1413 112.284 53.9064 115.026 62.6042C116.865 68.436 116.039 74.6196 113.057 79.6434" stroke="#3873FF" stroke-width="4" stroke-linecap="round" stroke-linejoin="round"/>
<path fill-rule="evenodd" clip-rule="evenodd" d="M43 75H103V93H43V75ZM49 82C49 81.4477 49.4477 81 50 81H54C54.5523 81 55 81.4477 55 82V86C55 86.5523 54.5523 87 54 87H50C49.4477 87 49 86.5523 49 86V82ZM60 81C59.4477 81 59 81.4477 59 82V86C59 86.5523 59.4477 87 60 87H64C64.5523 87 65 86.5523 65 86V82C65 81.4477 64.5523 81 64 81H60Z" fill="#3873FF"/>
<rect x="48" y="98" width="10" height="8" fill="#3873FF"/>
<rect x="63" y="98" width="35" height="8" fill="#3873FF"/>
<path d="M111 106V115H35V105.5" stroke="white" stroke-width="3" stroke-linecap="round" stroke-linejoin="round"/>
<path fill-rule="evenodd" clip-rule="evenodd" d="M35 105C32.2386 105 30 102.761 30 100C30 97.2386 32.2386 95 35 95C37.7614 95 40 97.2386 40 100C40 102.761 37.7614 105 35 105Z" stroke="white" stroke-width="3"/>
<rect opacity="0.1" width="10.381" height="10.381" transform="matrix(0 -1 -1 0 119.867 54.876)" fill="#3CE1CD"/>
<rect opacity="0.1" width="10.381" height="10.381" transform="matrix(0 -1 -1 0 125.867 39.3809)" fill="#3CE1CD"/>
<rect opacity="0.4" width="10.381" height="10.381" transform="matrix(0 -1 -1 0 106.371 54.876)" fill="#3CE1CD"/>
<rect opacity="0.4" width="10.381" height="10.381" transform="matrix(0 -1 -1 0 112.371 39.3809)" fill="#3CE1CD"/>
<rect opacity="0.7" width="10.381" height="10.381" transform="matrix(0 -1 -1 0 92.8762 54.876)" fill="#3CE1CD"/>
<rect opacity="0.7" width="10.381" height="10.381" transform="matrix(0 -1 -1 0 98.8762 39.3809)" fill="#3CE1CD"/>
<rect width="10.381" height="10.381" transform="matrix(0 -1 -1 0 79.381 54.876)" fill="#3CE1CD"/>
<rect width="10.381" height="10.381" transform="matrix(0 -1 -1 0 85.381 39.3809)" fill="#3CE1CD"/>
<defs>
<linearGradient id="paint0_linear_278_12680" x1="70" y1="35.1621" x2="70" y2="75.9998" gradientUnits="userSpaceOnUse">
<stop stop-color="#3873FF"/>
<stop offset="1" stop-color="#3873FF" stop-opacity="0"/>
</linearGradient>
</defs>
</svg>
