<svg width="60" height="60" viewBox="0 0 60 60" fill="none" xmlns="http://www.w3.org/2000/svg">
<g id="noun-idea-6195691 1">
<g id="Vector">
<path d="M31.4226 18.7329C31.0937 18.4047 30.6609 18.2006 30.198 18.1552C29.7352 18.1098 29.2709 18.2261 28.8843 18.4841C28.4976 18.7421 28.2126 19.126 28.0777 19.5702C27.9428 20.0145 27.9663 20.4918 28.1444 20.9207C28.3224 21.3495 28.6439 21.7035 29.0541 21.9223C29.4643 22.1411 29.9378 22.2112 30.3939 22.1206C30.85 22.03 31.2606 21.7844 31.5556 21.4255C31.8507 21.0666 32.0119 20.6167 32.0119 20.1525C32.0123 19.8888 31.9605 19.6276 31.8594 19.3839C31.7582 19.1403 31.6098 18.919 31.4226 18.7329Z" fill="#1DBD97"/>
<path d="M31.4226 29.7549C31.0937 29.4267 30.6609 29.2225 30.198 29.1772C29.7352 29.1318 29.2709 29.248 28.8843 29.506C28.4976 29.7641 28.2126 30.1479 28.0777 30.5922C27.9428 31.0365 27.9663 31.5137 28.1444 31.9426C28.3224 32.3715 28.6439 32.7255 29.0541 32.9443C29.4643 33.1631 29.9378 33.2332 30.3939 33.1426C30.85 33.052 31.2606 32.8063 31.5556 32.4475C31.8507 32.0886 32.0119 31.6387 32.0119 31.1744C32.0123 30.9107 31.9604 30.6496 31.8592 30.4059C31.7581 30.1623 31.6097 29.941 31.4226 29.7549Z" fill="#1DBD97"/>
<path fill-rule="evenodd" clip-rule="evenodd" d="M21.9765 41.4745C22.1289 41.3185 22.3364 41.2281 22.5547 41.2226H37.4464C37.6646 41.2281 37.8721 41.3185 38.0246 41.4745C38.1771 41.6305 38.2624 41.8399 38.2624 42.0579C38.2624 42.2758 38.1771 42.4852 38.0246 42.6412C37.8721 42.7973 37.6646 42.8876 37.4464 42.8931H22.5547C22.3364 42.8876 22.1289 42.7973 21.9765 42.6412C21.824 42.4852 21.7387 42.2758 21.7387 42.0579C21.7387 41.8399 21.824 41.6305 21.9765 41.4745ZM29.6091 6.59045C29.5052 6.6941 29.4469 6.83466 29.4469 6.98123V9.24314C29.4469 9.38971 29.5052 9.53028 29.6091 9.63392C29.7129 9.73756 29.8537 9.79579 30.0005 9.79579C30.1474 9.79579 30.2882 9.73756 30.392 9.63392C30.4958 9.53028 30.5542 9.38971 30.5542 9.24314V6.98123C30.5542 6.83466 30.4958 6.6941 30.392 6.59045C30.2882 6.48681 30.1474 6.42859 30.0005 6.42859C29.8537 6.42859 29.7129 6.48681 29.6091 6.59045ZM20.0954 9.55661C20.105 9.62836 20.1286 9.69753 20.165 9.76016L21.2979 11.7193C21.3713 11.8458 21.4921 11.938 21.6336 11.9756C21.7751 12.0132 21.9258 11.9932 22.0525 11.9199C22.1792 11.8466 22.2716 11.7261 22.3093 11.5848C22.347 11.4436 22.3269 11.2932 22.2535 11.1667L21.1205 9.20752C21.0842 9.14489 21.0358 9.09001 20.9782 9.04603C20.9206 9.00205 20.8549 8.96983 20.7849 8.9512C20.7148 8.93257 20.6417 8.9279 20.5698 8.93746C20.498 8.94701 20.4287 8.97061 20.3659 9.00689C20.3032 9.04318 20.2482 9.09145 20.2042 9.14894C20.1601 9.20644 20.1278 9.27203 20.1092 9.34198C20.0905 9.41193 20.0858 9.48486 20.0954 9.55661ZM13.2604 16.4669C13.2985 16.6077 13.3911 16.7277 13.5178 16.8005L15.4799 17.9309C15.5426 17.9669 15.6119 17.9902 15.6836 17.9995C15.7554 18.0088 15.8283 18.0039 15.8982 17.9851C15.9681 17.9663 16.0336 17.9339 16.0909 17.8898C16.1482 17.8457 16.1963 17.7908 16.2324 17.7282C16.2685 17.6656 16.2918 17.5964 16.3012 17.5248C16.3105 17.4531 16.3056 17.3804 16.2867 17.3106C16.2678 17.2409 16.2354 17.1755 16.1912 17.1183C16.1471 17.061 16.0921 17.013 16.0293 16.977L14.0672 15.8466C13.9405 15.7738 13.79 15.7543 13.6489 15.7924C13.5078 15.8304 13.3876 15.9228 13.3147 16.0493C13.2419 16.1758 13.2223 16.326 13.2604 16.4669ZM11.0679 26.1788C11.1371 26.2055 11.2109 26.2181 11.285 26.2158H13.5509C13.625 26.2181 13.6988 26.2055 13.7679 26.1788C13.837 26.1521 13.9001 26.1117 13.9533 26.0602C14.0065 26.0087 14.0489 25.947 14.0778 25.8789C14.1066 25.8107 14.1215 25.7375 14.1215 25.6635C14.1215 25.5895 14.1066 25.5162 14.0778 25.4481C14.0489 25.3799 14.0065 25.3182 13.9533 25.2667C13.9001 25.2152 13.837 25.1749 13.7679 25.1481C13.6988 25.1214 13.625 25.1088 13.5509 25.1111H11.285C11.2109 25.1088 11.1371 25.1214 11.0679 25.1481C10.9988 25.1749 10.9357 25.2152 10.8825 25.2667C10.8293 25.3182 10.787 25.3799 10.7581 25.4481C10.7292 25.5162 10.7143 25.5895 10.7143 25.6635C10.7143 25.7375 10.7292 25.8107 10.7581 25.8789C10.787 25.947 10.8293 26.0087 10.8825 26.0602C10.9357 26.1117 10.9988 26.1521 11.0679 26.1788ZM13.6479 35.5356C13.789 35.5736 13.9395 35.5541 14.0662 35.4814L14.0672 35.4793L16.0293 34.3489C16.0952 34.3146 16.1535 34.2673 16.2007 34.2099C16.2478 34.1525 16.2828 34.0862 16.3036 34.0149C16.3244 33.9436 16.3305 33.8689 16.3216 33.7952C16.3127 33.7216 16.2889 33.6504 16.2517 33.5862C16.2146 33.5219 16.1647 33.4658 16.1053 33.4213C16.0458 33.3767 15.9779 33.3446 15.9057 33.327C15.8335 33.3093 15.7585 33.3064 15.6851 33.3184C15.6117 33.3305 15.5416 33.3572 15.4788 33.3971L13.5168 34.5275C13.39 34.6002 13.2975 34.7202 13.2594 34.8611C13.2213 35.002 13.2408 35.1522 13.3137 35.2787C13.3865 35.4052 13.5068 35.4976 13.6479 35.5356ZM39.2162 8.9512C39.0747 8.98883 38.9539 9.08103 38.8805 9.20752L37.7476 11.1667C37.6742 11.2932 37.6541 11.4436 37.6918 11.5848C37.7295 11.7261 37.8218 11.8466 37.9485 11.9199C38.0753 11.9932 38.226 12.0132 38.3675 11.9756C38.509 11.938 38.6297 11.8458 38.7032 11.7193L39.8361 9.76016C39.9095 9.63367 39.9296 9.48324 39.8919 9.34198C39.8542 9.20071 39.7618 9.08018 39.6351 9.00689C39.5084 8.93361 39.3577 8.91357 39.2162 8.9512ZM46.3525 15.7915C46.2113 15.7534 46.0607 15.7728 45.9338 15.8455V15.8466L43.9717 16.977C43.845 17.0497 43.7524 17.1697 43.7144 17.3106C43.6763 17.4515 43.6958 17.6017 43.7687 17.7282C43.8415 17.8547 43.9617 17.9471 44.1029 17.9851C44.244 18.0231 44.3945 18.0036 44.5212 17.9309L46.4833 16.8005C46.6101 16.7277 46.7028 16.6077 46.741 16.4667C46.7792 16.3257 46.7597 16.1754 46.6869 16.0488C46.614 15.9221 46.4937 15.8296 46.3525 15.7915ZM48.9321 25.1481C48.863 25.1214 48.7892 25.1088 48.7151 25.1111H46.4502C46.3761 25.1088 46.3023 25.1214 46.2332 25.1481C46.164 25.1749 46.101 25.2152 46.0478 25.2667C45.9945 25.3182 45.9522 25.3799 45.9233 25.4481C45.8944 25.5162 45.8795 25.5895 45.8795 25.6635C45.8795 25.7375 45.8944 25.8107 45.9233 25.8789C45.9522 25.947 45.9945 26.0087 46.0478 26.0602C46.101 26.1117 46.164 26.1521 46.2332 26.1788C46.3023 26.2055 46.3761 26.2181 46.4502 26.2158H48.7151C48.7892 26.2181 48.863 26.2055 48.9321 26.1788C49.0012 26.1521 49.0643 26.1117 49.1175 26.0602C49.1707 26.0087 49.213 25.947 49.2419 25.8789C49.2708 25.8107 49.2857 25.7375 49.2857 25.6635C49.2857 25.5895 49.2708 25.5162 49.2419 25.4481C49.213 25.3799 49.1707 25.3182 49.1175 25.2667C49.0643 25.2152 49.0012 25.1749 48.9321 25.1481ZM46.7406 34.8611C46.7026 34.7202 46.61 34.6002 46.4833 34.5275V34.5254L44.5212 33.395C44.4584 33.359 44.3892 33.3356 44.3174 33.3263C44.2456 33.317 44.1727 33.3219 44.1029 33.3408C44.033 33.3596 43.9675 33.392 43.9102 33.4361C43.8528 33.4801 43.8047 33.5351 43.7687 33.5977C43.7326 33.6603 43.7092 33.7294 43.6999 33.8011C43.6906 33.8727 43.6955 33.9455 43.7144 34.0153C43.7332 34.085 43.7656 34.1504 43.8098 34.2076C43.854 34.2649 43.909 34.3129 43.9717 34.3489L45.9338 35.4814C46.0605 35.5541 46.211 35.5736 46.3521 35.5356C46.4933 35.4976 46.6135 35.4052 46.6863 35.2787C46.7592 35.1522 46.7787 35.002 46.7406 34.8611ZM34.6032 26.2158H43.8017C43.7332 29.7972 42.2641 33.2098 39.7086 35.7245C39.0279 36.3883 38.4449 37.1451 37.9769 37.9722C37.5974 38.6488 37.3049 39.3704 37.1063 40.1199H22.8969C22.6982 39.3705 22.4059 38.6489 22.0268 37.9722C21.5584 37.1453 20.9755 36.3886 20.2951 35.7245C17.7393 33.21 16.2703 29.7973 16.202 26.2158H25.665C25.7536 26.2158 25.841 26.1946 25.9197 26.1538C25.9984 26.1131 26.0662 26.054 26.1173 25.9817L28.5401 22.9021C29.2275 23.2653 30.0261 23.3585 30.7789 23.1634C31.5316 22.9684 32.184 22.4992 32.6076 21.8481C33.0312 21.1971 33.1954 20.4113 33.0679 19.6455C32.9403 18.8797 32.5302 18.1892 31.9184 17.7101C31.3065 17.2309 30.5371 16.9976 29.7616 17.0562C28.9862 17.1148 28.2607 17.461 27.7281 18.0266C27.1954 18.5923 26.8941 19.3365 26.8835 20.1127C26.8729 20.889 27.1536 21.6411 27.6706 22.2211L25.3979 25.1111H16.223C16.4288 21.6027 17.97 18.3055 20.5312 15.8942C23.0924 13.4829 26.4799 12.1399 30.0005 12.1399C33.5211 12.1399 36.9086 13.4829 39.4698 15.8942C42.031 18.3055 43.5722 21.6027 43.7781 25.1111H34.3361C34.2474 25.1111 34.1601 25.1324 34.0813 25.1731C34.0026 25.2139 33.9349 25.2729 33.8838 25.3452L31.4609 28.4249C30.7736 28.0617 29.975 27.9684 29.2222 28.1635C28.4694 28.3586 27.8171 28.8278 27.3935 29.4788C26.9698 30.1299 26.8057 30.9156 26.9332 31.6814C27.0608 32.4473 27.4708 33.1377 28.0827 33.6169C28.6946 34.0961 29.4639 34.3293 30.2394 34.2707C31.0149 34.2121 31.7403 33.866 32.273 33.3003C32.8056 32.7346 33.1069 31.9905 33.1176 31.2142C33.1282 30.438 32.8474 29.6858 32.3305 29.1058L34.6032 26.2158ZM29.4469 53.0188V52.4211C29.8129 52.489 30.1882 52.489 30.5542 52.4211V53.0188C30.5542 53.1654 30.4958 53.3059 30.392 53.4096C30.2882 53.5132 30.1474 53.5714 30.0005 53.5714C29.8537 53.5714 29.7129 53.5132 29.6091 53.4096C29.5052 53.3059 29.4469 53.1654 29.4469 53.0188Z" fill="#1547BA"/>
<path d="M23.228 43.9989V44.5751C23.2437 46.3579 23.9642 48.0623 25.2326 49.3174C26.5011 50.5726 28.2148 51.2767 30.0008 51.2767C31.7868 51.2767 33.5005 50.5726 34.769 49.3174C36.0374 48.0623 36.7579 46.3579 36.7736 44.5751V43.9989H23.228Z" fill="#1DBD97"/>
</g>
</g>
</svg>
