<svg width="60" height="60" viewBox="0 0 60 60" fill="none" xmlns="http://www.w3.org/2000/svg">
<g id="noun-people-6189797 1">
<g id="Group">
<g id="Group_2">
<g id="Group_3">
<path id="Vector" d="M30 26.2497C33.4516 26.2497 36.2497 23.4516 36.2497 20C36.2497 16.5484 33.4516 13.7502 30 13.7502C26.5483 13.7502 23.7502 16.5484 23.7502 20C23.7502 23.4516 26.5483 26.2497 30 26.2497Z" fill="#1DBD97"/>
</g>
<path id="Vector_2" d="M12.5 31.25C15.9518 31.25 18.75 28.4518 18.75 25C18.75 21.5482 15.9518 18.75 12.5 18.75C9.04822 18.75 6.25 21.5482 6.25 25C6.25 28.4518 9.04822 31.25 12.5 31.25Z" fill="#1547BA"/>
<g id="Group_4">
<path id="Vector_3" d="M47.5 31.25C50.9518 31.25 53.75 28.4518 53.75 25C53.75 21.5482 50.9518 18.75 47.5 18.75C44.0482 18.75 41.25 21.5482 41.25 25C41.25 28.4518 44.0482 31.25 47.5 31.25Z" fill="#1547BA"/>
</g>
<g id="Group_5">
<path id="Vector_4" fill-rule="evenodd" clip-rule="evenodd" d="M41.25 37.5V45C41.25 45.3312 41.1188 45.65 40.8838 45.8837C40.65 46.1187 40.3312 46.25 40 46.25H20C19.6688 46.25 19.35 46.1187 19.1162 45.8837C18.8812 45.65 18.75 45.3312 18.75 45V37.5C18.75 32.6675 22.6675 28.75 27.5 28.75H32.5C37.3325 28.75 41.25 32.6675 41.25 37.5Z" fill="#1DBD97"/>
</g>
<g id="Group_6">
<path id="Vector_5" fill-rule="evenodd" clip-rule="evenodd" d="M16.8012 34.0137C16.23 33.8425 15.6263 33.75 15 33.75C13.365 33.75 11.635 33.75 10 33.75C6.54875 33.75 3.75 36.5487 3.75 40V45C3.75 45.69 4.31 46.25 5 46.25H16.465C16.3237 45.8525 16.25 45.43 16.25 45V37.5C16.25 36.2825 16.4437 35.1112 16.8012 34.0137Z" fill="#1547BA"/>
</g>
<g id="Group_7">
<path id="Vector_6" fill-rule="evenodd" clip-rule="evenodd" d="M43.535 46.25H55C55.69 46.25 56.25 45.69 56.25 45V40C56.25 36.5487 53.4512 33.75 50 33.75C48.365 33.75 46.635 33.75 45 33.75C44.3737 33.75 43.77 33.8425 43.1987 34.0137C43.5562 35.1112 43.75 36.2825 43.75 37.5V45C43.75 45.43 43.6762 45.8525 43.535 46.25Z" fill="#1547BA"/>
</g>
</g>
</g>
</g>
</svg>
