<svg width="60" height="60" viewBox="0 0 60 60" fill="none" xmlns="http://www.w3.org/2000/svg">
<g id="noun-warning-5096593 1">
<path id="Vector" d="M37.1784 48.0216L30 55.2L22.8216 48.0216C22.4814 47.6814 22.722 47.1 23.2032 47.1H28.2V38.1H31.8V47.1H36.7962C37.2774 47.1 37.5186 47.6814 37.1784 48.0216Z" fill="#1547BA"/>
<path id="Vector_2" d="M19.146 21.702L8.92205 11.478L5.72225 14.6778C5.38145 15.018 4.80005 14.7774 4.80005 14.2962V4.79999H14.2962C14.7774 4.79999 15.018 5.38139 14.6778 5.72159L11.478 8.92199L21.036 18.48L19.146 21.702Z" fill="#1547BA"/>
<path id="Vector_3" d="M55.2 4.79999V14.2962C55.2 14.7774 54.6186 15.018 54.2784 14.6778L51.078 11.478L40.854 21.702L38.964 18.48L48.522 8.92199L45.3222 5.72219C44.9814 5.38139 45.2226 4.79999 45.7038 4.79999H55.2Z" fill="#1547BA"/>
<path id="Vector_4" d="M44.148 32.685L31.4994 11.0706C30.8202 9.91022 29.1798 9.91022 28.5006 11.0706L15.852 32.685C15.1524 33.8796 15.9924 35.4 17.3514 35.4H42.6492C44.0076 35.4 44.8476 33.8796 44.148 32.685ZM29.1384 15.6H30.8622C31.374 15.6 31.7826 16.026 31.7616 16.5372L31.3722 25.8822C31.3596 26.172 31.1214 26.4 30.8322 26.4H29.1684C28.8792 26.4 28.641 26.172 28.629 25.8822L28.2396 16.5372C28.218 16.026 28.6266 15.6 29.1384 15.6ZM30 32.7C28.7574 32.7 27.75 31.6926 27.75 30.45C27.75 29.2074 28.7574 28.2 30 28.2C31.2426 28.2 32.25 29.2074 32.25 30.45C32.25 31.6926 31.2426 32.7 30 32.7Z" fill="#1DBD97"/>
</g>
</svg>
