<svg width="48" height="48" viewBox="0 0 48 48" fill="none" xmlns="http://www.w3.org/2000/svg">
<path d="M5.4956 40.4984C4.53187 40.4984 3.70833 40.1553 3.025 39.469C2.34167 38.7827 2 37.9577 2 36.994C2 36.0303 2.34157 35.2068 3.0247 34.5234C3.70783 33.8401 4.52905 33.4984 5.48835 33.4984C5.66278 33.4984 5.83333 33.5068 6 33.5234C6.16667 33.5401 6.38333 33.5818 6.65 33.6484L16.65 23.6484C16.5833 23.3818 16.5417 23.1651 16.525 22.9984C16.5083 22.8318 16.5 22.6612 16.5 22.4868C16.5 21.5275 16.8432 20.7063 17.5294 20.0231C18.2157 19.34 19.0407 18.9984 20.0044 18.9984C20.9681 18.9984 21.7917 19.3423 22.475 20.0301C23.1583 20.7179 23.5 21.5448 23.5 22.5106C23.5 22.5692 23.45 22.9484 23.35 23.6484L28.85 29.1484C29.1167 29.0818 29.3333 29.0401 29.5 29.0234C29.6667 29.0068 29.8333 28.9984 30 28.9984C30.1667 28.9984 30.3333 29.0068 30.5 29.0234C30.6667 29.0401 30.8833 29.0818 31.15 29.1484L39.15 21.1484C39.0833 20.8818 39.0417 20.6651 39.025 20.4984C39.0083 20.3318 39 20.1612 39 19.9868C39 19.0275 39.3432 18.2063 40.0294 17.5231C40.7157 16.84 41.5407 16.4984 42.5045 16.4984C43.4682 16.4984 44.2917 16.8416 44.975 17.5279C45.6583 18.2142 46 19.0392 46 20.0029C46 20.9666 45.6584 21.7901 44.9753 22.4734C44.2922 23.1568 43.471 23.4984 42.5117 23.4984C42.3372 23.4984 42.1667 23.4901 42 23.4734C41.8333 23.4568 41.6167 23.4151 41.35 23.3484L33.35 31.3484C33.4167 31.6151 33.4583 31.8318 33.475 31.9984C33.4917 32.1651 33.5 32.3357 33.5 32.5101C33.5 33.4694 33.1569 34.2906 32.4706 34.9737C31.7843 35.6569 30.9593 35.9984 29.9956 35.9984C29.0319 35.9984 28.2083 35.6569 27.525 34.9737C26.8417 34.2906 26.5 33.4694 26.5 32.5101C26.5 32.3357 26.5083 32.1651 26.525 31.9984C26.5417 31.8318 26.5833 31.6151 26.65 31.3484L21.15 25.8484C20.8833 25.9151 20.6667 25.9568 20.5 25.9734C20.3333 25.9901 20.1625 25.9984 19.9875 25.9984C19.9292 25.9984 19.55 25.9484 18.85 25.8484L8.85 35.8484C8.91667 36.1151 8.95833 36.3318 8.975 36.4984C8.99167 36.6651 9 36.8357 9 37.0101C9 37.9694 8.65685 38.7906 7.97055 39.4737C7.28428 40.1569 6.4593 40.4984 5.4956 40.4984ZM8 18.3984L6.98735 16.2111L4.8 15.1984L6.98735 14.1858L8 11.9984L9.01265 14.1858L11.2 15.1984L9.01265 16.2111L8 18.3984ZM30 15.8484L28.4642 12.5343L25.15 10.9984L28.4642 9.46259L30 6.14844L31.5358 9.46259L34.85 10.9984L31.5358 12.5343L30 15.8484Z" fill="#194AB9"/>
</svg>
