<svg width="32" height="32" viewBox="0 0 32 32" fill="none" xmlns="http://www.w3.org/2000/svg">
<rect opacity="0.01" width="32" height="32" fill="#1547BA"/>
<path fill-rule="evenodd" clip-rule="evenodd" d="M11.4934 5.33301H20.7999C24.2264 5.33301 27.0042 8.06194 27.0042 11.4282V20.5711C27.0042 23.9374 24.2264 26.6663 20.7999 26.6663H11.4934C8.06683 26.6663 5.28906 23.9374 5.28906 20.5711V11.4282C5.28906 8.06194 8.06683 5.33301 11.4934 5.33301ZM11.4918 7.36422H20.7983C23.0827 7.36422 24.9345 9.1835 24.9345 11.4277V20.5706C24.9345 22.8148 23.0827 24.6341 20.7983 24.6341H11.4918C9.20743 24.6341 7.35559 22.8148 7.35559 20.5706V11.4277C7.35559 9.1835 9.20743 7.36422 11.4918 7.36422ZM21.8315 15.9984C21.8315 12.9126 19.2852 10.4111 16.1442 10.4111C13.0485 10.5161 10.5638 12.9572 10.4569 15.9984C10.4569 19.0842 13.0032 21.5857 16.1442 21.5857C19.2852 21.5857 21.8315 19.0842 21.8315 15.9984ZM16.2245 12.4476C17.1628 12.447 18.0628 12.8128 18.7265 13.4644C19.3902 14.116 19.7631 15 19.7631 15.9218C19.7062 17.8975 18.0878 19.4852 16.0766 19.5383C15.1384 19.5389 14.2385 19.173 13.5749 18.5214C12.9114 17.8698 12.5388 16.9858 12.5391 16.0641C12.5965 14.089 14.214 12.5017 16.2245 12.4476ZM22 9.99963C22 9.44735 21.5523 8.99963 21 8.99963C20.4477 8.99963 20 9.44735 20 9.99963C20 10.5519 20.4477 10.9996 21 10.9996C21.5523 10.9996 22 10.5519 22 9.99963Z" fill="#1547BA"/>
</svg>
