<svg width="32" height="32" viewBox="0 0 32 32" fill="none" xmlns="http://www.w3.org/2000/svg">
<rect opacity="0.01" width="32" height="32" fill="#1547BA"/>
<path fill-rule="evenodd" clip-rule="evenodd" d="M7.26571 5.33301H24.7395C25.8053 5.33301 26.6693 6.19701 26.6693 7.26278V24.7365C26.6693 25.8023 25.8053 26.6663 24.7394 26.6663H7.26571C6.19994 26.6663 5.33594 25.8023 5.33594 24.7365V7.26278C5.33594 6.19701 6.19994 5.33301 7.26571 5.33301ZM11.374 24.3158C11.6842 24.3158 11.9356 24.0644 11.9356 23.7542V13.7331C11.9356 13.4229 11.6842 13.1715 11.374 13.1715H8.98347C8.6733 13.1715 8.42188 13.4229 8.42188 13.7331V23.7542C8.42188 24.0644 8.6733 24.3158 8.98347 24.3158H11.374ZM10.1773 12.2292C8.92305 12.2292 7.90625 11.2124 7.90625 9.95818C7.90625 8.70393 8.92305 7.68713 10.1773 7.68713C11.4316 7.68713 12.4484 8.70393 12.4484 9.95818C12.4484 11.2124 11.4316 12.2292 10.1773 12.2292ZM23.9095 24.3121C24.1946 24.3121 24.4258 24.0809 24.4258 23.7958V18.9457V18.9099C24.426 16.7941 24.4262 12.9996 20.3417 12.9996C18.4868 12.9996 17.6156 13.6787 17.0294 14.5584V13.6841C17.0294 13.399 16.7982 13.1678 16.513 13.1678H14.032C13.7468 13.1678 13.5156 13.399 13.5156 13.6841V23.7958C13.5156 24.0809 13.7468 24.3121 14.032 24.3121H16.513C16.7982 24.3121 17.0294 24.0809 17.0294 23.7958V18.3742C17.0938 17.6458 17.4144 16.0225 18.9954 16.0225C20.8834 16.0225 20.846 18.0575 20.8302 18.9147C20.829 18.9829 20.8279 19.0436 20.8279 19.0953V23.7958C20.8279 24.0809 21.0591 24.3121 21.3442 24.3121H23.9095Z" fill="#1547BA"/>
</svg>
