<svg width="60" height="60" viewBox="0 0 60 60" fill="none" xmlns="http://www.w3.org/2000/svg">
<g id="noun-setting-2331174 1">
<path id="Vector" d="M31.0711 33.9406C30.9574 33.5426 30.9522 33.1214 31.056 32.7207C31.1598 32.32 31.3689 31.9544 31.6616 31.6617C31.9543 31.369 32.32 31.1599 32.7207 31.056C33.1214 30.9522 33.5426 30.9574 33.9406 31.0712C34.2562 31.1638 34.588 31.1881 34.9137 31.1423C35.2395 31.0966 35.5517 30.9818 35.8296 30.8058C36.1075 30.6298 36.3446 30.3965 36.5251 30.1215C36.7057 29.8465 36.8255 29.5362 36.8765 29.2112C37.091 27.9909 35.3114 26.347 35.5157 25.125C35.5874 24.6776 35.7895 24.2612 36.0966 23.928C36.4038 23.5947 36.8023 23.3595 37.2425 23.2516C37.7445 23.1259 38.1901 22.8361 38.5085 22.4281C38.827 22.0202 38.9999 21.5175 38.9999 21C38.9999 20.4825 38.827 19.9798 38.5086 19.5719C38.1901 19.1639 37.7445 18.8741 37.2425 18.7484C36.8409 18.6479 36.4736 18.4418 36.1784 18.1516C35.8833 17.8613 35.6712 17.4974 35.5641 17.0976C35.4569 16.6977 35.4587 16.2765 35.5691 15.8776C35.6796 15.4786 35.8947 15.1165 36.1922 14.8287C36.5641 14.4689 36.8052 13.995 36.8769 13.4825C36.9487 12.97 36.8472 12.4482 36.5884 12C36.3297 11.5518 35.9286 11.203 35.4488 11.0089C34.9691 10.8148 34.4382 10.7866 33.9406 10.9288C33.5426 11.0425 33.1214 11.0478 32.7207 10.944C32.32 10.8401 31.9544 10.631 31.6616 10.3383C31.3689 10.0456 31.1598 9.68 31.056 9.27929C30.9522 8.87858 30.9574 8.4574 31.0711 8.05939C31.2133 7.56179 31.1852 7.03094 30.9911 6.55119C30.797 6.07144 30.4482 5.67031 30 5.41155C29.5518 5.15278 29.03 5.05123 28.5175 5.12302C28.005 5.19481 27.5312 5.43583 27.1713 5.80778C26.8835 6.10529 26.5214 6.32042 26.1224 6.43086C25.7235 6.54131 25.3022 6.54305 24.9024 6.43592C24.5026 6.32878 24.1386 6.11666 23.8484 5.82154C23.5581 5.52643 23.352 5.15905 23.2515 4.75749C23.1259 4.25545 22.836 3.80982 22.4281 3.49139C22.0201 3.17296 21.5175 3 20.9999 3C20.4824 3 19.9798 3.17296 19.5718 3.49139C19.1639 3.80982 18.874 4.25545 18.7484 4.75749C18.6405 5.19762 18.4052 5.59618 18.072 5.90331C17.7388 6.21043 17.3224 6.41248 16.8749 6.4842C15.653 6.68858 14.009 4.90894 12.7888 5.12343C12.4638 5.17447 12.1535 5.29426 11.8785 5.47479C11.6035 5.65532 11.3702 5.89245 11.1942 6.17033C11.0181 6.4482 10.9034 6.76044 10.8576 7.08619C10.8119 7.41195 10.8361 7.74371 10.9288 8.05934C11.0425 8.45735 11.0478 8.87854 10.9439 9.27926C10.8401 9.67997 10.631 10.0456 10.3383 10.3383C10.0456 10.631 9.67993 10.8401 9.27921 10.9439C8.8785 11.0478 8.45731 11.0425 8.0593 10.9288C7.5617 10.7866 7.03086 10.8148 6.55112 11.0089C6.07138 11.203 5.67026 11.5518 5.41151 12C5.15275 12.4482 5.05121 12.97 5.123 13.4825C5.1948 13.995 5.43582 14.4688 5.80776 14.8286C6.10526 15.1165 6.32037 15.4786 6.43081 15.8775C6.54125 16.2765 6.54299 16.6977 6.43585 17.0975C6.32872 17.4974 6.1166 17.8613 5.82149 18.1515C5.52638 18.4418 5.15902 18.6479 4.75747 18.7484C4.25544 18.874 3.8098 19.1639 3.49137 19.5718C3.17294 19.9798 2.99998 20.4825 2.99998 21C2.99998 21.5175 3.17294 22.0202 3.49137 22.4281C3.8098 22.8361 4.25544 23.1259 4.75747 23.2516C5.15902 23.3521 5.52638 23.5581 5.82149 23.8484C6.1166 24.1387 6.32872 24.5026 6.43585 24.9024C6.54299 25.3022 6.54125 25.7234 6.43081 26.1224C6.32037 26.5213 6.10526 26.8835 5.80776 27.1713C5.43581 27.5311 5.19479 28.0049 5.123 28.5174C5.0512 29.0299 5.15275 29.5518 5.4115 29.9999C5.67025 30.4481 6.07137 30.797 6.55111 30.9911C7.03085 31.1852 7.5617 31.2134 8.0593 31.0712C8.45731 30.9574 8.8785 30.9522 9.27921 31.056C9.67992 31.1598 10.0456 31.3689 10.3383 31.6616C10.631 31.9543 10.8401 32.32 10.9439 32.7207C11.0477 33.1214 11.0425 33.5426 10.9288 33.9406C10.7866 34.4382 10.8148 34.9691 11.0089 35.4488C11.2029 35.9286 11.5518 36.3297 12 36.5884C12.4482 36.8472 12.97 36.9487 13.4825 36.8769C13.995 36.8052 14.4688 36.5641 14.8286 36.1922C15.1165 35.8947 15.4786 35.6796 15.8775 35.5691C16.2765 35.4587 16.6977 35.4569 17.0975 35.5641C17.4974 35.6712 17.8613 35.8833 18.1515 36.1784C18.4418 36.4736 18.6479 36.8409 18.7484 37.2425C18.874 37.7445 19.1639 38.1901 19.5718 38.5086C19.9798 38.827 20.4824 39 21 39C21.5175 39 22.0201 38.827 22.4281 38.5086C22.836 38.1901 23.1259 37.7445 23.2515 37.2425C23.352 36.8409 23.5581 36.4735 23.8484 36.1784C24.1386 35.8833 24.5026 35.6712 24.9024 35.564C25.3023 35.4569 25.7235 35.4587 26.1224 35.5691C26.5214 35.6796 26.8835 35.8947 27.1713 36.1922C27.5312 36.5641 28.005 36.8051 28.5175 36.8769C29.03 36.9487 29.5518 36.8472 30 36.5884C30.4481 36.3297 30.797 35.9285 30.9911 35.4488C31.1851 34.9691 31.2133 34.4382 31.0711 33.9406ZM21 28.68C19.481 28.68 17.9962 28.2296 16.7332 27.3857C15.4702 26.5418 14.4859 25.3424 13.9046 23.939C13.3233 22.5357 13.1712 20.9915 13.4676 19.5017C13.7639 18.0119 14.4953 16.6435 15.5694 15.5694C16.6435 14.4954 18.0119 13.7639 19.5017 13.4676C20.9915 13.1712 22.5357 13.3233 23.939 13.9046C25.3423 14.4859 26.5418 15.4702 27.3857 16.7332C28.2296 17.9962 28.68 19.481 28.68 21C28.68 23.0369 27.8709 24.9903 26.4306 26.4306C24.9903 27.8709 23.0369 28.68 21 28.68Z" fill="#1547BA"/>
<path id="Vector_2" d="M56.074 41.9291C56.2971 41.8073 56.4917 41.6392 56.6447 41.4362C56.7977 41.2331 56.9057 40.9998 56.9614 40.7517C57.017 40.5036 57.0191 40.2465 56.9675 39.9976C56.9159 39.7486 56.8118 39.5135 56.6621 39.308C56.1123 38.5239 54.2413 38.5981 53.6851 37.8185C53.4797 37.5348 53.3626 37.1968 53.3483 36.8468C53.3341 36.4968 53.4233 36.1504 53.6049 35.8509C53.8106 35.5079 53.8958 35.1059 53.8468 34.7089C53.7979 34.312 53.6177 33.9427 53.3349 33.6599C53.052 33.377 52.6828 33.1968 52.2858 33.1479C51.8888 33.0989 51.4869 33.1841 51.1438 33.3898C50.8694 33.5543 50.556 33.6425 50.2361 33.6451C49.9162 33.6478 49.6014 33.5648 49.3243 33.4049C49.0472 33.2449 48.8179 33.0137 48.6603 32.7353C48.5026 32.4569 48.4223 32.1414 48.4276 31.8216C48.4342 31.4216 48.3069 31.0309 48.0661 30.7116C47.8252 30.3923 47.4845 30.1626 47.0981 30.0591C46.7118 29.9555 46.3019 29.9841 45.9336 30.1402C45.5654 30.2964 45.2598 30.5711 45.0656 30.9207C44.9102 31.2004 44.6829 31.4335 44.4072 31.5957C44.1314 31.758 43.8173 31.8435 43.4974 31.8435C43.1774 31.8435 42.8633 31.758 42.5876 31.5957C42.3118 31.4335 42.0845 31.2004 41.9291 30.9207C41.7349 30.5711 41.4294 30.2964 41.0611 30.1402C40.6928 29.9841 40.283 29.9555 39.8966 30.059C39.5102 30.1626 39.1695 30.3923 38.9287 30.7116C38.6878 31.0309 38.5606 31.4216 38.5672 31.8216C38.5725 32.1414 38.4921 32.4569 38.3345 32.7353C38.1768 33.0137 37.9475 33.2449 37.6705 33.4048C37.3934 33.5648 37.0786 33.6478 36.7586 33.6451C36.4387 33.6425 36.1253 33.5543 35.8509 33.3898C35.5079 33.1841 35.1059 33.0989 34.7089 33.1479C34.3119 33.1968 33.9427 33.377 33.6598 33.6598C33.377 33.9427 33.1968 34.3119 33.1479 34.7089C33.099 35.1059 33.1841 35.5079 33.3898 35.8509C33.5714 36.1505 33.6606 36.4969 33.6464 36.8468C33.6321 37.1968 33.5149 37.5348 33.3096 37.8185C32.7535 38.5981 30.8824 38.5239 30.3327 39.308C30.183 39.5135 30.0789 39.7486 30.0273 39.9976C29.9757 40.2465 29.9777 40.5036 30.0334 40.7517C30.0891 40.9998 30.197 41.2331 30.35 41.4361C30.503 41.6392 30.6976 41.8073 30.9207 41.9291C31.2004 42.0845 31.4335 42.3118 31.5957 42.5875C31.758 42.8633 31.8436 43.1774 31.8436 43.4974C31.8436 43.8173 31.758 44.1314 31.5957 44.4072C31.4335 44.6829 31.2004 44.9103 30.9207 45.0656C30.571 45.2598 30.2963 45.5654 30.1402 45.9337C29.9841 46.3019 29.9555 46.7118 30.0591 47.0982C30.1626 47.4845 30.3923 47.8252 30.7116 48.0661C31.031 48.3069 31.4217 48.4342 31.8216 48.4275C32.1415 48.4222 32.457 48.5026 32.7354 48.6603C33.0137 48.818 33.2449 49.0472 33.4049 49.3243C33.5648 49.6013 33.6478 49.9162 33.6452 50.2361C33.6425 50.556 33.5544 50.8694 33.3899 51.1438C33.1842 51.4868 33.099 51.8888 33.1479 52.2858C33.1968 52.6828 33.377 53.052 33.6599 53.3349C33.9427 53.6177 34.312 53.7979 34.709 53.8468C35.1059 53.8958 35.5079 53.8106 35.851 53.6049C36.1253 53.4404 36.4387 53.3522 36.7587 53.3496C37.0786 53.3469 37.3934 53.4299 37.6705 53.5899C37.9475 53.7498 38.1768 53.981 38.3345 54.2594C38.4921 54.5378 38.5725 54.8532 38.5672 55.1731C38.5606 55.5731 38.6879 55.9637 38.9287 56.2831C39.1696 56.6024 39.5103 56.832 39.8966 56.9356C40.283 57.0391 40.6928 57.0106 41.0611 56.8545C41.4294 56.6983 41.7349 56.4237 41.9292 56.074C42.0845 55.7943 42.3119 55.5613 42.5876 55.399C42.8633 55.2368 43.1775 55.1512 43.4974 55.1512C43.8173 55.1512 44.1314 55.2367 44.4072 55.399C44.6829 55.5613 44.9103 55.7943 45.0656 56.074C45.2599 56.4236 45.5654 56.6984 45.9337 56.8545C46.3019 57.0106 46.7118 57.0392 47.0982 56.9357C47.4846 56.8321 47.8252 56.6024 48.0661 56.2831C48.307 55.9638 48.4342 55.5731 48.4276 55.1731C48.4223 54.8532 48.5026 54.5377 48.6603 54.2594C48.818 53.981 49.0472 53.7498 49.3243 53.5898C49.6014 53.4299 49.9162 53.3469 50.2361 53.3496C50.5561 53.3522 50.8695 53.4404 51.1438 53.6049C51.4869 53.8106 51.8889 53.8958 52.2858 53.8469C52.6828 53.7979 53.0521 53.6177 53.3349 53.3349C53.6178 53.052 53.798 52.6828 53.8469 52.2858C53.8958 51.8888 53.8106 51.4868 53.6049 51.1438C53.4404 50.8694 53.3522 50.556 53.3496 50.2361C53.3469 49.9161 53.4299 49.6013 53.5899 49.3242C53.7498 49.0472 53.981 48.8179 54.2594 48.6602C54.5378 48.5026 54.8533 48.4222 55.1732 48.4275C55.5731 48.4342 55.9638 48.3069 56.2832 48.0661C56.6025 47.8252 56.8322 47.4845 56.9357 47.0981C57.0392 46.7118 57.0107 46.3019 56.8545 45.9336C56.6984 45.5654 56.4237 45.2598 56.074 45.0656C55.7943 44.9102 55.5613 44.6829 55.399 44.4072C55.2368 44.1314 55.1512 43.8173 55.1512 43.4974C55.1512 43.1774 55.2368 42.8633 55.399 42.5876C55.5613 42.3118 55.7943 42.0845 56.074 41.9291ZM43.4974 49.4974C42.3107 49.4974 41.1507 49.1455 40.164 48.4862C39.1773 47.8269 38.4083 46.8898 37.9541 45.7935C37.5 44.6971 37.3812 43.4907 37.6127 42.3268C37.8442 41.163 38.4156 40.0939 39.2548 39.2547C40.0939 38.4156 41.163 37.8442 42.3269 37.6127C43.4908 37.3812 44.6971 37.5 45.7935 37.9541C46.8899 38.4082 47.8269 39.1773 48.4862 40.164C49.1455 41.1507 49.4974 42.3107 49.4974 43.4974C49.4974 45.0887 48.8653 46.6148 47.74 47.74C46.6148 48.8652 45.0887 49.4974 43.4974 49.4974Z" fill="#1DBD97"/>
</g>
</svg>
