<svg width="60" height="60" viewBox="0 0 60 60" fill="none" xmlns="http://www.w3.org/2000/svg">
<path fill-rule="evenodd" clip-rule="evenodd" d="M24.1732 33.7562V36.0796C18.9938 36.8541 14.2999 38.2482 10.5772 40.7265C8.47301 42.1206 6.69258 49.5556 6.207 51.7241H53.7932C53.3076 49.5556 51.5272 42.1206 49.2612 40.7265C45.7003 38.2482 40.8446 36.8541 35.827 36.0796V33.7562C37.6074 32.2073 38.9023 29.7289 39.8734 26.631C41.0064 26.3212 41.492 24.6174 41.3302 22.7586H18.5082C18.5082 24.6174 18.9938 26.3212 20.1268 26.631C20.9361 29.8838 22.3928 32.2073 24.1732 33.7562Z" fill="#1547BA"/>
<path fill-rule="evenodd" clip-rule="evenodd" d="M40.9213 18.0353C40.7583 13.2237 38.3132 10.016 35.0532 8.41217L33.9121 14.6672C33.7491 15.6295 32.1191 15.3087 32.2821 14.3464L33.5861 7.77063C33.4231 5.68563 26.5769 5.68563 26.4139 7.77063L27.555 14.3464C27.718 15.3087 26.2509 15.6295 26.0879 14.6672L24.9469 8.41217C21.6868 10.016 19.2417 13.2237 19.0787 18.0353C16.9597 18.356 17.1227 21.7241 19.4047 21.7241H40.5953C42.8774 21.7241 43.0404 18.356 40.9213 18.0353Z" fill="#1DBD97"/>
</svg>
