<svg width="60" height="60" viewBox="0 0 60 60" fill="none" xmlns="http://www.w3.org/2000/svg">
<path d="M12.93 15.8986L11.436 32.3406C13.6527 34.0854 15.6616 36.0791 17.423 38.2826C19.116 40.2116 21.223 42.6116 24.048 45.4396C24.4316 45.8021 24.9393 46.004 25.467 46.004C25.9948 46.004 26.5025 45.8021 26.886 45.4396C27.2586 45.0649 27.4684 44.5584 27.4697 44.03C27.471 43.5017 27.2638 42.9941 26.893 42.6176L26.879 42.6076L22.636 38.3596C22.5405 38.2674 22.4643 38.157 22.4119 38.035C22.3595 37.913 22.3319 37.7818 22.3308 37.649C22.3296 37.5162 22.3549 37.3845 22.4052 37.2616C22.4555 37.1387 22.5297 37.0271 22.6236 36.9332C22.7175 36.8393 22.8292 36.7651 22.9521 36.7148C23.075 36.6645 23.2067 36.6392 23.3394 36.6403C23.4722 36.6415 23.6034 36.6691 23.7254 36.7215C23.8474 36.7739 23.9578 36.8501 24.05 36.9456L30.419 43.3256C30.7985 43.6917 31.3053 43.8962 31.8325 43.8962C32.3598 43.8962 32.8665 43.6917 33.246 43.3256C33.432 43.1399 33.5795 42.9193 33.6802 42.6765C33.7808 42.4337 33.8326 42.1734 33.8326 41.9106C33.8326 41.6478 33.7808 41.3875 33.6802 41.1447C33.5795 40.9019 33.432 40.6813 33.246 40.4956L27.592 34.8336C27.4981 34.7411 27.4234 34.6311 27.372 34.5098C27.3206 34.3884 27.2937 34.2581 27.2927 34.1264C27.2916 33.9946 27.3166 33.8639 27.3661 33.7418C27.4155 33.6197 27.4886 33.5085 27.581 33.4146C27.7677 33.225 28.0221 33.1173 28.2883 33.1152C28.42 33.1142 28.5507 33.1391 28.6728 33.1886C28.795 33.2381 28.9061 33.3111 29 33.4036L36.066 40.4796C36.4461 40.8481 36.9547 41.0542 37.484 41.0542C38.0134 41.0542 38.522 40.8481 38.902 40.4796C39.2752 40.1055 39.4852 39.599 39.4861 39.0706C39.4871 38.5423 39.2789 38.035 38.907 37.6596L38.901 37.6546V37.6486L32.538 31.2786C32.3559 31.09 32.2551 30.8374 32.2574 30.5752C32.2596 30.313 32.3648 30.0622 32.5502 29.8768C32.7356 29.6914 32.9864 29.5862 33.2486 29.5839C33.5108 29.5816 33.7634 29.6824 33.952 29.8646L41.021 36.9406C41.2422 37.1555 41.5095 37.317 41.8025 37.4129C42.0956 37.5087 42.4067 37.5363 42.712 37.4936C43.007 37.4597 43.2901 37.3581 43.5394 37.1968C43.7887 37.0355 43.9973 36.8188 44.149 36.5636C44.3208 36.2386 44.4049 35.8746 44.3932 35.5072C44.3814 35.1399 44.2742 34.7819 44.082 34.4686C43.9754 34.2773 43.8428 34.1016 43.688 33.9466L31.122 21.3636C31.0292 21.2706 30.9189 21.1969 30.7975 21.1465C30.6761 21.0962 30.546 21.0703 30.4145 21.0703C30.2831 21.0703 30.153 21.0962 30.0316 21.1465C29.9102 21.1969 29.7999 21.2706 29.707 21.3636L25.107 25.9636C24.6937 26.3849 24.2004 26.7193 23.656 26.9474C23.1116 27.1754 22.5272 27.2925 21.937 27.2916H21.929C21.0388 27.2893 20.1691 27.0237 19.4295 26.5281C18.6899 26.0325 18.1134 25.3292 17.7728 24.5066C17.4321 23.6841 17.3425 22.7792 17.5152 21.9058C17.6878 21.0324 18.115 20.2296 18.743 19.5986L22.5 15.8416C19.3131 15.6202 16.1141 15.6392 12.93 15.8986Z" fill="#1547BA"/>
<path d="M20.162 24.5566C20.393 24.7904 20.6682 24.976 20.9715 25.1025C21.2748 25.229 21.6003 25.294 21.929 25.2936H21.934C22.2607 25.2939 22.5842 25.2288 22.8854 25.1022C23.1866 24.9757 23.4595 24.7901 23.688 24.5566L28.293 19.9506C28.8564 19.389 29.6195 19.0737 30.415 19.0737C31.2105 19.0737 31.9735 19.389 32.537 19.9506L45.1 32.5316C45.154 32.5856 45.2 32.6486 45.251 32.7056C46.3559 32.134 47.4156 31.4791 48.421 30.7466L47.152 16.8076C39.09 16.2386 35.299 14.5416 33.01 13.5076C31.9217 13.0253 30.7133 12.8824 29.5425 13.0973C28.3718 13.3123 27.293 13.8752 26.447 14.7126L20.158 21.0126C19.9252 21.2449 19.7409 21.5212 19.6159 21.8254C19.4909 22.1297 19.4277 22.4557 19.43 22.7846C19.4297 23.4489 19.6929 24.0862 20.162 24.5566Z" fill="#1547BA"/>
<path d="M3 33.9986H8.363C8.61334 33.9996 8.85495 33.9067 9.0401 33.7382C9.22525 33.5697 9.34047 33.3379 9.363 33.0886L11 15.0886C11.0125 14.9499 10.996 14.8101 10.9514 14.6782C10.9067 14.5463 10.8351 14.4252 10.7409 14.3226C10.6468 14.2199 10.5323 14.1381 10.4047 14.0823C10.2771 14.0266 10.1393 13.998 10 13.9986H3C2.73478 13.9986 2.48043 14.104 2.29289 14.2915C2.10536 14.479 2 14.7334 2 14.9986V32.9986C2 33.2638 2.10536 33.5182 2.29289 33.7057C2.48043 33.8932 2.73478 33.9986 3 33.9986Z" fill="#1DBD97"/>
<path d="M58 32.9986V14.9986C58 14.7334 57.8947 14.479 57.7071 14.2915C57.5196 14.104 57.2653 13.9986 57 13.9986H50C49.8612 13.9987 49.7239 14.0278 49.5969 14.0839C49.4699 14.14 49.356 14.2219 49.2624 14.3244C49.1688 14.4269 49.0976 14.5478 49.0533 14.6794C49.009 14.811 48.9925 14.9503 49.005 15.0886L50.641 33.0886C50.6636 33.3379 50.7788 33.5697 50.9639 33.7382C51.1491 33.9067 51.3907 33.9996 51.641 33.9986H57C57.2653 33.9986 57.5196 33.8932 57.7071 33.7057C57.8947 33.5182 58 33.2638 58 32.9986Z" fill="#1DBD97"/>
</svg>
