<svg width="60" height="60" viewBox="0 0 60 60" fill="none" xmlns="http://www.w3.org/2000/svg">
<path d="M35.6559 48.5575V50.0239C35.6559 51.1869 34.7972 52.1476 33.6859 52.2993L33.3323 53.614C33.1302 54.3219 32.4736 54.8276 31.7664 54.8276H28.2305C27.4728 54.8276 26.8161 54.3219 26.6646 53.614L26.311 52.2993C25.1997 52.1476 24.341 51.1869 24.341 50.0239V48.5575C24.341 47.799 24.9471 47.1417 25.7553 47.1417H34.292C35.0497 47.1922 35.6559 47.799 35.6559 48.5575Z" fill="#1DBD97"/>
<path fill-rule="evenodd" clip-rule="evenodd" d="M42.2226 28.9887C42.2226 32.2754 40.9092 35.3094 38.7877 37.4837C37.1713 39.1523 36.1105 41.2761 35.7569 43.6021C35.6054 44.5628 34.7466 45.3213 33.7364 45.3213H26.1594C25.1492 45.3213 24.2904 44.6134 24.1389 43.6021C23.7853 41.3266 22.7245 39.1523 21.1081 37.4837C19.0371 35.3094 17.7238 32.3766 17.6732 29.1404C17.6227 22.3141 23.0276 16.8024 29.7964 16.7519C36.7167 16.7013 42.2226 22.2129 42.2226 28.9887ZM29.9984 20.2409C30.7561 20.2409 31.3623 20.8477 31.3623 21.6062C31.3623 22.3646 30.7561 22.9714 29.9479 23.022C26.614 23.022 23.8863 25.7525 23.8863 29.0898C23.8863 29.8483 23.2802 30.4551 22.5225 30.4551C21.7648 30.4551 21.1586 29.8483 21.1586 29.0898C21.1586 24.185 25.1492 20.2409 29.9984 20.2409Z" fill="#194AB9"/>
<path d="M16.562 40.467L13.1271 43.9055C12.5714 44.4617 12.5714 45.3213 13.1271 45.8775C13.3796 46.1303 13.7332 46.282 14.0868 46.282C14.4404 46.282 14.794 46.1303 15.0466 45.8775L18.4815 42.4391C19.0371 41.8829 19.0371 41.0232 18.4815 40.467C17.9763 39.9614 17.1176 39.9614 16.562 40.467Z" fill="#1DBD97"/>
<path d="M16.562 17.5104C16.8145 17.7632 17.1681 17.9149 17.5217 17.9149C17.8753 17.9149 18.2289 17.7632 18.4815 17.5104C19.0371 16.9541 19.0371 16.0945 18.4815 15.5383L15.0466 12.0999C14.4909 11.5436 13.6322 11.5436 13.0766 12.0999C12.5209 12.6561 12.5209 13.5157 13.0766 14.0719L16.562 17.5104Z" fill="#1DBD97"/>
<path d="M13.7837 28.9887C13.7837 28.2302 13.1776 27.6234 12.4199 27.6234H7.57064C6.81294 27.6234 6.20679 28.2302 6.20679 28.9887C6.20679 29.7472 6.81294 30.354 7.57064 30.354H12.4199C13.1271 30.354 13.7837 29.7472 13.7837 28.9887Z" fill="#194AB9"/>
<path d="M29.9984 12.7572C30.7561 12.7572 31.3623 12.1504 31.3623 11.392V6.53768C31.3623 5.7792 30.7561 5.17241 29.9984 5.17241C29.2407 5.17241 28.6346 5.7792 28.6346 6.53768V11.392C28.6346 12.1504 29.2407 12.7572 29.9984 12.7572Z" fill="#194AB9"/>
<path d="M42.4751 17.9149C42.8287 17.9149 43.1823 17.7632 43.4349 17.5104L46.8698 14.0719C47.4254 13.5157 47.4254 12.6561 46.8698 12.0999C46.3141 11.5436 45.4554 11.5436 44.8998 12.0999L41.4649 15.5383C40.9092 16.0945 40.9092 16.9541 41.4649 17.5104C41.768 17.7632 42.1215 17.9149 42.4751 17.9149Z" fill="#1DBD97"/>
<path fill-rule="evenodd" clip-rule="evenodd" d="M52.4262 27.6234H47.577C46.8193 27.6234 46.2131 28.2302 46.2131 28.9887C46.2131 29.7472 46.8193 30.354 47.577 30.354H52.4262C53.1839 30.354 53.7901 29.7472 53.7901 28.9887C53.8406 28.2302 53.2344 27.6234 52.4262 27.6234Z" fill="#194AB9"/>
<path d="M43.4349 40.467C42.8792 39.9108 42.0205 39.9108 41.4649 40.467C40.9092 41.0232 40.9092 41.8829 41.4649 42.4391L44.8998 45.8775C45.1523 46.1303 45.5059 46.282 45.8595 46.282C46.2131 46.282 46.5667 46.1303 46.8193 45.8775C47.3749 45.3213 47.3749 44.4617 46.8193 43.9055L43.4349 40.467Z" fill="#1DBD97"/>
</svg>
