<svg width="60" height="60" viewBox="0 0 60 60" fill="none" xmlns="http://www.w3.org/2000/svg">
<path fill-rule="evenodd" clip-rule="evenodd" d="M48.2207 23.6833C49.3669 23.6833 52.2556 24.6003 51.9818 27.7428C51.7304 30.6194 48.9346 31.0783 48.6576 31.1059C50.4881 31.8985 51.6445 33.2676 51.1627 35.0909C50.7525 36.6387 49.6686 37.0859 47.9752 37.2734C47.9752 37.2734 50.4791 38.2792 49.841 40.8205C49.219 43.2967 46.4971 43.1603 46.4971 43.1603C46.4971 43.1603 48.9834 44.3907 48.0189 46.8507C47.313 48.6528 45.8453 49.365 44.3733 49.3748C43.7125 49.3792 42.1027 49.3754 40.085 49.3706C35.7527 49.3602 29.5394 49.3454 26.7982 49.3985C24.2548 49.4477 21.8736 49.0069 19.6778 47.7485V27.8971C22.9145 26.0254 28.0337 20.6602 28.9908 16.5964C29.2896 15.3252 29.6058 13.4665 29.7393 12.1612C29.8612 10.9737 31.0242 10.0219 32.2416 10.0004C33.7527 9.9734 34.9387 11.3295 35.3268 13.3682C36.3092 18.5249 35.5293 22.268 34.8896 23.6797C37.9805 23.6824 41.0717 23.6826 44.1626 23.6828C45.5154 23.6829 46.8681 23.683 48.2207 23.6833Z" fill="#1547BA"/>
<path d="M16.8579 24.7419H9.38052C8.61821 24.7419 8 25.3685 8 26.1419V48.5999C8 49.373 8.61787 50 9.38052 50H16.8579C17.6202 50 18.2384 49.3734 18.2384 48.5999V26.1419C18.2384 25.3691 17.6209 24.7419 16.8579 24.7419Z" fill="#1DBD97"/>
</svg>
