<svg width="360" height="249" viewBox="0 0 360 249" fill="none" xmlns="http://www.w3.org/2000/svg">
<g clip-path="url(#clip0_273_5051)">
<path opacity="0.38" d="M425.258 80.1806C494.151 -55.0294 440.391 -220.487 305.181 -289.38C169.971 -358.273 4.51255 -304.513 -64.3804 -169.303C-133.273 -34.0927 -79.5127 131.365 55.6973 200.258C190.907 269.151 356.365 215.391 425.258 80.1806Z" stroke="#AEC5FF" stroke-linecap="round" stroke-dasharray="28 17"/>
<path opacity="0.39" d="M252.732 207.556C391.973 167.63 472.483 22.3859 432.556 -116.855C392.63 -256.095 247.386 -336.605 108.145 -296.679C-31.0954 -256.752 -111.605 -111.508 -71.6787 27.7323C-31.7521 166.973 113.492 247.483 252.732 207.556Z" stroke="#AEC5FF" stroke-linecap="round" stroke-dasharray="14 38"/>
<path opacity="0.27" d="M392.272 -176.929C319.167 -293.921 165.063 -329.498 48.0713 -256.394C-68.9205 -183.289 -104.498 -29.1852 -31.3935 87.8066C41.7111 204.799 195.815 240.376 312.807 167.272C429.799 94.1669 465.376 -59.9368 392.272 -176.929Z" stroke="#AEC5FF" stroke-linecap="round" stroke-dasharray="20 31"/>
<path opacity="0.77" d="M398.874 48.1591C450.082 -72.4791 393.797 -211.788 273.159 -262.996C152.521 -314.204 13.212 -257.919 -37.9959 -137.281C-89.2037 -16.6428 -32.9193 122.666 87.7189 173.874C208.357 225.082 347.666 168.797 398.874 48.1591Z" stroke="#AEC5FF" stroke-linecap="round" stroke-dasharray="41 35"/>
<path opacity="0.71" d="M-40.2402 -87.4567C-63.9309 34.421 15.6655 152.427 137.543 176.118C259.421 199.809 377.427 120.212 401.118 -1.66536C424.809 -123.543 345.212 -241.55 223.335 -265.24C101.457 -288.931 -16.5496 -209.334 -40.2402 -87.4567Z" stroke="#AEC5FF" stroke-linecap="round" stroke-dasharray="20 22"/>
<path opacity="0.12" d="M296.077 133.506C394.42 69.6406 422.371 -61.8553 358.506 -160.199C294.641 -258.542 163.145 -286.493 64.8011 -222.628C-33.5423 -158.763 -61.4926 -27.2666 2.37236 71.0768C66.2374 169.42 197.733 197.371 296.077 133.506Z" stroke="#AEC5FF" stroke-linecap="round" stroke-dasharray="47 33"/>
<path opacity="0.85" d="M264.891 136.547C364.914 89.9052 408.189 -28.9901 361.547 -129.013C314.905 -229.037 196.01 -272.311 95.9869 -225.669C-4.03637 -179.028 -47.3107 -60.1324 -0.669129 39.8908C45.9725 139.914 164.868 183.188 264.891 136.547Z" stroke="#AEC5FF" stroke-linecap="round" stroke-dasharray="22 14"/>
<path opacity="0.92" d="M-5.50573 -67.3923C-18.115 35.3022 54.9135 128.774 157.608 141.384C260.302 153.993 353.775 80.9645 366.384 -21.73C378.993 -124.424 305.965 -217.897 203.27 -230.506C100.576 -243.115 7.10357 -170.087 -5.50573 -67.3923Z" stroke="#AEC5FF" stroke-linecap="round" stroke-dasharray="20 33"/>
<path opacity="0.97" d="M343.677 18.1002C378.284 -72.0538 333.254 -173.192 243.1 -207.799C152.946 -242.406 51.8076 -197.376 17.2007 -107.222C-17.4062 -17.0684 27.6237 84.0703 117.778 118.677C207.932 153.284 309.07 108.254 343.677 18.1002Z" stroke="#AEC5FF" stroke-linecap="round" stroke-dasharray="42 30"/>
<path opacity="0.29" d="M233.299 108.956C318.084 79.7618 363.149 -12.6362 333.956 -97.4212C304.762 -182.206 212.364 -227.272 127.579 -198.078C42.794 -168.884 -2.2715 -76.486 26.9223 8.29891C56.1161 93.0838 148.514 138.149 233.299 108.956Z" stroke="#AEC5FF" stroke-linecap="round" stroke-dasharray="53 13"/>
<path opacity="0.1" d="M151.842 102.558C233.094 118.352 311.765 65.2879 327.558 -15.9639C343.352 -97.2158 290.288 -175.887 209.036 -191.68C127.784 -207.474 49.1134 -154.41 33.3196 -73.1582C17.5259 8.09364 70.5901 86.7646 151.842 102.558Z" stroke="#AEC5FF" stroke-linecap="round" stroke-dasharray="18 41"/>
<path opacity="0.42" d="M204.295 -179.857C129.573 -193.033 58.3181 -143.14 45.1426 -68.4174C31.9671 6.30471 81.8605 77.5599 156.583 90.7354C231.305 103.911 302.56 54.0175 315.735 -20.7046C328.911 -95.4268 279.018 -166.682 204.295 -179.857Z" stroke="#AEC5FF" stroke-linecap="round" stroke-dasharray="20 44"/>
<path opacity="0.59" d="M143.923 -163.998C77.9603 -143.831 40.8351 -74.0087 61.0021 -8.04549C81.169 57.9177 150.991 95.0428 216.954 74.8759C282.918 54.7089 320.043 -15.1134 299.876 -81.0765C279.709 -147.04 209.887 -184.165 143.923 -163.998Z" stroke="#AEC5FF" stroke-linecap="round" stroke-dasharray="51 50"/>
<path opacity="0.18" d="M68.0512 -42.5993C69.1346 19.4707 120.331 68.91 182.401 67.8266C244.471 66.7432 293.91 15.5472 292.826 -46.5228C291.743 -108.593 240.547 -158.032 178.477 -156.949C116.407 -155.865 66.9678 -104.669 68.0512 -42.5993Z" stroke="#AEC5FF" stroke-linecap="round" stroke-dasharray="53 54"/>
<path opacity="0.3" d="M109.788 26.0899C148.808 65.1092 212.07 65.1092 251.09 26.0899C290.109 -12.9295 290.109 -76.1924 251.09 -115.212C212.07 -154.231 148.808 -154.231 109.788 -115.212C70.7688 -76.1924 70.7688 -12.9295 109.788 26.0899Z" stroke="#AEC5FF" stroke-linecap="round" stroke-dasharray="47 36"/>
<path opacity="0.25" d="M259.674 -7.61338C280.079 -51.3735 261.147 -103.39 217.387 -123.796C173.626 -144.202 121.61 -125.269 101.204 -81.509C80.7983 -37.7488 99.7309 14.2679 143.491 34.6736C187.251 55.0793 239.268 36.1468 259.674 -7.61338Z" stroke="#AEC5FF" stroke-linecap="round" stroke-dasharray="36 47"/>
<path opacity="0.98" d="M241.823 -1.57921C265.562 -35.4809 257.322 -82.2072 223.421 -105.945C189.519 -129.684 142.793 -121.445 119.055 -87.5428C95.3164 -53.6412 103.555 -6.91484 137.457 16.8234C171.359 40.5616 218.085 32.3225 241.823 -1.57921Z" stroke="#AEC5FF" stroke-linecap="round" stroke-dasharray="16 49"/>
<path opacity="0.72" d="M141.993 -93.77C114.815 -72.5367 109.997 -33.2922 131.23 -6.11478C152.463 21.0626 191.708 25.8812 218.885 4.64792C246.063 -16.5854 250.881 -55.8299 229.648 -83.0073C208.415 -110.185 169.17 -115.003 141.993 -93.77Z" stroke="#AEC5FF" stroke-linecap="round" stroke-dasharray="53 53"/>
<path opacity="0.83" d="M135.162 -65.6741C123.502 -40.6683 134.32 -10.9445 159.326 0.715924C184.332 12.3763 214.056 1.55773 225.716 -23.4481C237.376 -48.4539 226.558 -78.1777 201.552 -89.8381C176.546 -101.499 146.822 -90.6799 135.162 -65.6741Z" stroke="#AEC5FF" stroke-linecap="round" stroke-dasharray="17 51"/>
<path opacity="0.6" d="M147.991 -25.8269C158.337 -7.90616 181.253 -1.76604 199.173 -12.1126C217.094 -22.4592 223.234 -45.3744 212.888 -63.2952C202.541 -81.216 179.626 -87.3561 161.705 -77.0095C143.784 -66.663 137.644 -43.7477 147.991 -25.8269Z" stroke="#AEC5FF" stroke-linecap="round" stroke-dasharray="37 16"/>
</g>
<defs>
<clipPath id="clip0_273_5051">
<rect width="360" height="249" fill="white"/>
</clipPath>
</defs>
</svg>
