<svg width="24" height="24" viewBox="0 0 24 24" fill="none" xmlns="http://www.w3.org/2000/svg">
<path d="M12 10.4998C13.3807 10.4998 14.4999 9.38056 14.4999 7.9999C14.4999 6.61924 13.3807 5.5 12 5.5C10.6194 5.5 9.50012 6.61924 9.50012 7.9999C9.50012 9.38056 10.6194 10.4998 12 10.4998Z" fill="#1DBD97"/>
<path d="M5 12.5C6.38071 12.5 7.5 11.3807 7.5 10C7.5 8.61929 6.38071 7.5 5 7.5C3.61929 7.5 2.5 8.61929 2.5 10C2.5 11.3807 3.61929 12.5 5 12.5Z" fill="#1547BA"/>
<path d="M19 12.5C20.3807 12.5 21.5 11.3807 21.5 10C21.5 8.61929 20.3807 7.5 19 7.5C17.6193 7.5 16.5 8.61929 16.5 10C16.5 11.3807 17.6193 12.5 19 12.5Z" fill="#1547BA"/>
<path fill-rule="evenodd" clip-rule="evenodd" d="M16.5 15V18C16.5 18.1325 16.4475 18.26 16.3535 18.3535C16.26 18.4475 16.1325 18.5 16 18.5H8C7.8675 18.5 7.74 18.4475 7.6465 18.3535C7.5525 18.26 7.5 18.1325 7.5 18V15C7.5 13.067 9.067 11.5 11 11.5H13C14.933 11.5 16.5 13.067 16.5 15Z" fill="#1DBD97"/>
<path fill-rule="evenodd" clip-rule="evenodd" d="M6.7205 13.6055C6.492 13.537 6.2505 13.5 6 13.5C5.346 13.5 4.654 13.5 4 13.5C2.6195 13.5 1.5 14.6195 1.5 16V18C1.5 18.276 1.724 18.5 2 18.5H6.586C6.5295 18.341 6.5 18.172 6.5 18V15C6.5 14.513 6.5775 14.0445 6.7205 13.6055Z" fill="#1547BA"/>
<path fill-rule="evenodd" clip-rule="evenodd" d="M17.414 18.5H22C22.276 18.5 22.5 18.276 22.5 18V16C22.5 14.6195 21.3805 13.5 20 13.5C19.346 13.5 18.654 13.5 18 13.5C17.7495 13.5 17.508 13.537 17.2795 13.6055C17.4225 14.0445 17.5 14.513 17.5 15V18C17.5 18.172 17.4705 18.341 17.414 18.5Z" fill="#1547BA"/>
</svg>
