<svg width="60" height="60" viewBox="0 0 60 60" fill="none" xmlns="http://www.w3.org/2000/svg">
<g id="noun-process-4346715 1">
<path id="Vector" d="M6.88741 32.4825L10.8207 34.0559C10.9448 34.1055 11.0554 34.1838 11.1432 34.2845C11.231 34.3852 11.2936 34.5054 11.3258 34.6351C11.7883 36.4969 12.5282 38.2785 13.5206 39.9202C13.5896 40.0346 13.6303 40.1637 13.6396 40.2969C13.6488 40.4301 13.6262 40.5636 13.5736 40.6863L11.9008 44.5875C11.8574 44.6841 11.8412 44.7907 11.8538 44.8958C11.8664 45.001 11.9074 45.1007 11.9724 45.1843C12.3933 45.6844 12.8479 46.1836 13.332 46.6668C13.8161 47.15 14.3179 47.6114 14.8171 48.0281C14.9006 48.0931 15.0002 48.1341 15.1053 48.1465C15.2103 48.159 15.3168 48.1425 15.4132 48.0988L19.3144 46.4277C19.4188 46.3824 19.5315 46.3592 19.6453 46.3595C19.7987 46.3593 19.9493 46.4012 20.0805 46.4808C21.7223 47.4731 23.504 48.213 25.3659 48.6755C25.4956 48.7076 25.6158 48.7702 25.7165 48.8581C25.8172 48.9459 25.8956 49.0565 25.9451 49.1806L27.5186 53.1145C27.5559 53.2135 27.6197 53.3004 27.703 53.3657C27.7863 53.431 27.8858 53.4722 27.9909 53.4849C29.3295 53.6003 30.6756 53.6003 32.0142 53.4849C32.1189 53.4718 32.2181 53.4303 32.3009 53.3648C32.3837 53.2994 32.447 53.2125 32.484 53.1137L34.0575 49.1806C34.107 49.0565 34.1853 48.9459 34.2861 48.8581C34.3868 48.7702 34.507 48.7076 34.6367 48.6755C36.4985 48.213 38.2802 47.4731 39.922 46.4808C40.0361 46.4112 40.1653 46.3701 40.2986 46.3609C40.4319 46.3516 40.5655 46.3746 40.6881 46.4277L44.5894 48.0996C44.6858 48.1432 44.7923 48.1596 44.8974 48.147C45.0025 48.1344 45.1021 48.0932 45.1855 48.0281C45.6847 47.6114 46.1839 47.1534 46.6689 46.6685C47.1538 46.1836 47.6126 45.6844 48.031 45.1826C48.0957 45.0992 48.1365 44.9997 48.1488 44.8948C48.1611 44.7899 48.1445 44.6836 48.1009 44.5875L46.4298 40.6863C46.3772 40.5636 46.3546 40.4301 46.3638 40.2969C46.3731 40.1637 46.4138 40.0346 46.4828 39.9202C47.4752 38.2785 48.2151 36.4969 48.6776 34.6351C48.7098 34.5054 48.7724 34.3852 48.8602 34.2845C48.948 34.1838 49.0586 34.1055 49.1827 34.0559L53.1168 32.4825C53.2159 32.4452 53.3028 32.3815 53.3681 32.2982C53.4334 32.2149 53.4746 32.1153 53.4873 32.0102C53.5453 31.3662 53.5714 30.6894 53.5714 29.9999C53.5714 29.3104 53.542 28.6328 53.4873 27.9879C53.4741 27.8832 53.4326 27.7841 53.3674 27.7012C53.3021 27.6183 53.2155 27.5547 53.1168 27.5173L49.1827 25.9439C49.0587 25.8944 48.9482 25.8162 48.8604 25.7157C48.7725 25.6151 48.7099 25.4951 48.6776 25.3655C48.2152 23.5035 47.4754 21.7215 46.4828 20.0796C46.4137 19.9651 46.3728 19.8359 46.3636 19.7025C46.3544 19.5692 46.3771 19.4355 46.4298 19.3127L48.1017 15.4115C48.1451 15.3152 48.1614 15.2089 48.1488 15.104C48.1362 14.9991 48.0952 14.8996 48.0302 14.8163C47.6134 14.3171 47.1555 13.8179 46.6705 13.333C46.1856 12.8481 45.6805 12.3851 45.1855 11.9717C45.102 11.9067 45.0024 11.8656 44.8974 11.853C44.7923 11.8404 44.6859 11.8567 44.5894 11.9002L40.6881 13.5721C40.5653 13.6248 40.4316 13.6474 40.2982 13.6382C40.1649 13.629 40.0356 13.5882 39.9212 13.5191C38.2797 12.5267 36.4983 11.7868 34.6367 11.3244C34.507 11.2922 34.3868 11.2296 34.2861 11.1417C34.1853 11.0539 34.107 10.9434 34.0575 10.8192L32.484 6.88613C32.4471 6.78717 32.3836 6.70027 32.3006 6.63494C32.2176 6.5696 32.1182 6.52836 32.0134 6.51572C30.6745 6.39954 29.3281 6.39954 27.9892 6.51572C27.8843 6.52836 27.7849 6.5696 27.7019 6.63494C27.6189 6.70027 27.5555 6.78717 27.5186 6.88613L25.9451 10.8201C25.8956 10.9442 25.8172 11.0548 25.7165 11.1426C25.6158 11.2304 25.4956 11.293 25.3659 11.3252C23.5043 11.7877 21.7229 12.5275 20.0814 13.5199C19.9669 13.589 19.8377 13.6298 19.7043 13.6391C19.5709 13.6483 19.4373 13.6256 19.3144 13.5729L15.4132 11.9002C15.3166 11.8571 15.2102 11.841 15.1052 11.8536C15.0003 11.8662 14.9007 11.907 14.8171 11.9717C14.3221 12.3851 13.822 12.8422 13.3329 13.3322C12.8437 13.8221 12.3891 14.3171 11.9724 14.8163C11.9074 14.8996 11.8664 14.9991 11.8537 15.104C11.8411 15.2089 11.8574 15.3152 11.9008 15.4115L13.5728 19.3127C13.6255 19.4355 13.6482 19.5692 13.6389 19.7025C13.6297 19.8359 13.5889 19.9651 13.5198 20.0796C12.5268 21.7228 11.7869 23.5062 11.325 25.3697C11.2927 25.4993 11.23 25.6193 11.1422 25.7199C11.0544 25.8204 10.9439 25.8987 10.8198 25.9481L6.88657 27.5173C6.78768 27.5548 6.70091 27.6187 6.63563 27.7019C6.57035 27.7851 6.52904 27.8846 6.51614 27.9896C6.45805 28.6328 6.42859 29.3104 6.42859 29.9999C6.42859 30.6894 6.45805 31.3662 6.51278 32.0128C6.5262 32.1179 6.56824 32.2173 6.6343 32.3001C6.70037 32.383 6.78793 32.4461 6.88741 32.4825ZM30.0013 13.163C33.3314 13.163 36.5868 14.1504 39.3558 16.0005C42.1247 17.8506 44.2828 20.4801 45.5572 23.5567C46.8316 26.6332 47.1651 30.0186 46.5154 33.2846C45.8657 36.5507 44.2621 39.5507 41.9073 41.9054C39.5525 44.2601 36.5523 45.8637 33.2861 46.5134C30.02 47.163 26.6345 46.8296 23.5578 45.5552C20.4811 44.2809 17.8514 42.1228 16.0013 39.354C14.1512 36.5852 13.1636 33.3299 13.1636 29.9999C13.1688 25.536 14.9444 21.2565 18.1009 18.1C21.2575 14.9436 25.5372 13.1681 30.0013 13.163Z" fill="#1547BA"/>
<path id="Vector_2" d="M19.9599 36.3903C20.0404 36.4154 20.1243 36.4284 20.2087 36.4286C20.385 36.4284 20.5567 36.3718 20.6988 36.2671C20.8409 36.1623 20.946 36.0148 20.9989 35.846L21.7046 33.5987C21.7427 33.4932 21.7591 33.381 21.7528 33.2689C21.7466 33.1568 21.7178 33.0471 21.6682 32.9465C21.6186 32.8459 21.5493 32.7564 21.4643 32.6833C21.3794 32.6103 21.2806 32.5553 21.1739 32.5216C21.0672 32.4878 20.9548 32.4762 20.8435 32.4872C20.7322 32.4982 20.6242 32.5317 20.5262 32.5857C20.4281 32.6397 20.3419 32.713 20.2728 32.8013C20.2037 32.8895 20.1531 32.9909 20.1241 33.0994L20.0586 33.3083C19.3253 31.3125 19.2466 29.1338 19.8337 27.0899C20.4209 25.046 21.6432 23.2439 23.3226 21.9463C25.0019 20.6487 27.0504 19.9235 29.1692 19.8766C31.288 19.8296 33.3663 20.4632 35.1011 21.6851C35.1901 21.7523 35.2917 21.8008 35.3998 21.8277C35.5079 21.8545 35.6202 21.8593 35.7302 21.8417C35.8401 21.8241 35.9454 21.7844 36.0398 21.725C36.1341 21.6657 36.2156 21.5878 36.2793 21.4962C36.3431 21.4045 36.3878 21.3009 36.4107 21.1916C36.4337 21.0822 36.4345 20.9693 36.4131 20.8597C36.3917 20.75 36.3485 20.6458 36.286 20.5532C36.2236 20.4607 36.1433 20.3817 36.0498 20.321C33.9997 18.8805 31.5407 18.1434 29.0394 18.2197C26.538 18.2959 24.1281 19.1813 22.1689 20.744C20.2097 22.3067 18.806 24.4629 18.167 26.8914C17.5281 29.3199 17.6881 31.8907 18.6231 34.2205L18.221 34.0931C18.1171 34.0603 18.0078 34.0484 17.8993 34.058C17.7908 34.0676 17.6853 34.0986 17.5887 34.1491C17.4921 34.1997 17.4064 34.2688 17.3365 34.3526C17.2666 34.4364 17.2137 34.5332 17.1811 34.6375C17.1484 34.7417 17.1365 34.8514 17.1461 34.9603C17.1557 35.0692 17.1865 35.1751 17.2369 35.272C17.2872 35.369 17.3561 35.455 17.4396 35.5252C17.5231 35.5954 17.6195 35.6484 17.7234 35.6812L19.9599 36.3903Z" fill="#1DBD97"/>
<path id="Vector_3" d="M38.8139 27.4421C38.8944 27.4676 38.9782 27.4808 39.0626 27.4812C39.239 27.481 39.4107 27.4245 39.5528 27.3197C39.6949 27.2149 39.8 27.0674 39.8529 26.8985L39.9185 26.6896C40.6521 28.6856 40.7311 30.8646 40.144 32.9088C39.5569 34.953 38.3344 36.7555 36.6548 38.0532C34.9753 39.3509 32.9265 40.076 30.8075 40.1228C28.6884 40.1695 26.6099 39.5354 24.8752 38.3129C24.6948 38.1866 24.4717 38.1375 24.2551 38.1763C24.0386 38.2151 23.8462 38.3386 23.7204 38.5197C23.5946 38.7009 23.5457 38.9248 23.5843 39.1421C23.623 39.3595 23.7461 39.5526 23.9265 39.6788C25.9767 41.1194 28.4358 41.8566 30.9372 41.7803C33.4387 41.7041 35.8487 40.8186 37.808 39.2558C39.7673 37.693 41.1711 35.5365 41.8101 33.1078C42.4491 30.6791 42.2891 28.1082 41.354 25.7782L41.7562 25.9055C41.861 25.942 41.972 25.957 42.0827 25.9496C42.1933 25.9423 42.3014 25.9127 42.4005 25.8627C42.4996 25.8126 42.5877 25.7432 42.6596 25.6583C42.7314 25.5735 42.7856 25.4751 42.8189 25.3689C42.8522 25.2627 42.8639 25.1509 42.8534 25.04C42.8428 24.9292 42.8103 24.8216 42.7576 24.7236C42.7049 24.6257 42.6331 24.5393 42.5466 24.4697C42.46 24.4 42.3605 24.3485 42.2537 24.3182L40.0147 23.6098C39.8049 23.5436 39.5776 23.5636 39.3826 23.6655C39.1876 23.7674 39.0409 23.9429 38.9747 24.1534L38.269 26.4008C38.2039 26.6114 38.2247 26.8393 38.3268 27.0346C38.429 27.2298 38.6041 27.3764 38.8139 27.4421Z" fill="#1DBD97"/>
</g>
</svg>
