<svg width="60" height="60" viewBox="0 0 60 60" fill="none" xmlns="http://www.w3.org/2000/svg">
<g id="noun-path-2957894 1">
<g id="Vector">
<path fill-rule="evenodd" clip-rule="evenodd" d="M52.1849 6.42859H39.7065C38.9408 6.42859 38.32 7.04937 38.32 7.81514V20.2941C38.32 21.0599 38.9408 21.6807 39.7065 21.6807H52.1849C52.9507 21.6807 53.5714 21.0599 53.5714 20.2941V7.81514C53.5714 7.04937 52.9507 6.42859 52.1849 6.42859ZM24.2517 51.4619L16.626 38.9829C16.0854 38.0982 14.8005 38.0982 14.2599 38.9829L6.63416 51.4619C6.06956 52.3858 6.73447 53.5714 7.81722 53.5714H23.0686C24.1514 53.5714 24.8163 52.3858 24.2517 51.4619Z" fill="#1547BA"/>
<path d="M16.8294 34.1597C16.8294 34.9255 16.2087 35.5462 15.4429 35.5462C14.6772 35.5462 14.0564 34.9255 14.0564 34.1597V22.374C14.0564 17.3964 18.0913 13.3614 23.0686 13.3614C28.0459 13.3614 32.0808 17.3964 32.0808 22.374V37.6261C32.0808 41.072 34.8742 43.8656 38.32 43.8656C41.7658 43.8656 44.5592 41.072 44.5592 37.6261V25.8404C44.5592 25.0746 45.18 24.4538 45.9457 24.4538C46.7114 24.4538 47.3322 25.0746 47.3322 25.8404V37.6261C47.3322 42.6036 43.2973 46.6387 38.32 46.6387C33.3427 46.6387 29.3078 42.6036 29.3078 37.6261V22.374C29.3078 18.928 26.5144 16.1345 23.0686 16.1345C19.6228 16.1345 16.8294 18.928 16.8294 22.374V34.1597Z" fill="#1DBD97"/>
</g>
</g>
</svg>
