<svg width="24" height="24" viewBox="0 0 24 24" fill="none" xmlns="http://www.w3.org/2000/svg">
<path d="M20.7295 5.68811C18.5492 5.68811 16.7765 4.00356 16.7765 1.91992H7.22366C7.22366 4.00356 5.45089 5.68811 3.26224 5.68811C3.25804 5.68811 3.25804 5.68811 3.24963 5.68811C3.45968 11.9096 4.69053 18.2613 12.0001 22.0799C19.3096 18.2613 20.5404 11.9096 20.7505 5.68811H20.7295ZM12.0001 19.9333C6.64814 16.8792 5.45089 12.086 5.16943 7.20462C6.85399 6.78874 8.18571 5.51167 8.61835 3.89013H15.3818C15.8187 5.51587 17.1461 6.79294 18.8349 7.20883C18.5534 12.086 17.3478 16.8792 12.0001 19.9333Z" fill="#1547BA"/>
<path d="M10.6348 8.54865C10.6348 7.79669 11.2481 7.18336 12.0001 7.18336C12.752 7.18336 13.3653 7.79669 13.3653 8.54865V8.99814H14.0165V8.54865C14.0165 7.43541 13.1133 6.53223 12.0001 6.53223C10.8868 6.53223 9.98364 7.43541 9.98364 8.54865V8.99814H10.6348V8.54865Z" fill="#1DBD97"/>
<path d="M14.3399 9.62891H9.66016C9.31149 9.62891 9.03003 9.91036 9.03003 10.259V14.0146C9.03003 14.3633 9.31149 14.6448 9.66016 14.6448H14.3399C14.6886 14.6448 14.9701 14.3633 14.9701 14.0146V10.259C14.9701 9.91036 14.6886 9.62891 14.3399 9.62891ZM12.6092 13.3593H11.3951L11.5506 12.2671C11.3699 12.1326 11.2481 11.9142 11.2481 11.6663C11.2481 11.2504 11.5842 10.9144 12.0043 10.9144C12.4201 10.9144 12.752 11.2504 12.752 11.6663C12.752 11.9142 12.6344 12.1326 12.4495 12.2712L12.6092 13.3593Z" fill="#1DBD97"/>
</svg>
