<svg width="24" height="24" viewBox="0 0 24 24" fill="none" xmlns="http://www.w3.org/2000/svg">
<path d="M12.4284 13.5764C12.3829 13.4172 12.3808 13.2488 12.4224 13.0885C12.4639 12.9282 12.5475 12.7819 12.6646 12.6649C12.7817 12.5478 12.928 12.4641 13.0882 12.4226C13.2485 12.3811 13.417 12.3832 13.5762 12.4287C13.7025 12.4657 13.8352 12.4754 13.9655 12.4571C14.0958 12.4388 14.2206 12.3929 14.3318 12.3225C14.4429 12.2521 14.5378 12.1588 14.61 12.0488C14.6822 11.9388 14.7301 11.8147 14.7506 11.6847C14.8363 11.1966 14.1245 10.539 14.2062 10.0502C14.2349 9.87122 14.3158 9.70467 14.4386 9.57138C14.5615 9.43809 14.7209 9.34399 14.8969 9.30083C15.0977 9.25057 15.276 9.13463 15.4034 8.97145C15.5307 8.80827 15.5999 8.6072 15.5999 8.4002C15.5999 8.19319 15.5308 7.99212 15.4034 7.82894C15.276 7.66576 15.0978 7.54982 14.897 7.49955C14.7363 7.45936 14.5894 7.37693 14.4713 7.26083C14.3533 7.14472 14.2684 6.99916 14.2256 6.83922C14.1827 6.67929 14.1834 6.5108 14.2276 6.35123C14.2718 6.19165 14.3578 6.0468 14.4768 5.93167C14.6256 5.78774 14.722 5.59821 14.7507 5.3932C14.7795 5.1882 14.7388 4.97947 14.6353 4.8002C14.5318 4.62093 14.3714 4.48139 14.1795 4.40375C13.9876 4.32612 13.7752 4.31484 13.5762 4.37172C13.417 4.41721 13.2485 4.4193 13.0882 4.37778C12.928 4.33625 12.7817 4.25261 12.6646 4.13553C12.5475 4.01845 12.4639 3.87219 12.4224 3.71191C12.3808 3.55163 12.3829 3.38315 12.4284 3.22395C12.4853 3.02491 12.474 2.81257 12.3964 2.62067C12.3188 2.42877 12.1792 2.26832 12 2.16481C11.8207 2.06131 11.612 2.02069 11.407 2.0494C11.2019 2.07812 11.0124 2.17453 10.8685 2.32331C10.7534 2.44231 10.6085 2.52836 10.4489 2.57254C10.2893 2.61672 10.1209 2.61742 9.96092 2.57456C9.80098 2.53171 9.65541 2.44686 9.53931 2.32881C9.4232 2.21077 9.34077 2.06381 9.30057 1.90319C9.25031 1.70238 9.13437 1.52412 8.97119 1.39675C8.80801 1.26938 8.60694 1.2002 8.39994 1.2002C8.19293 1.2002 7.99186 1.26938 7.82868 1.39675C7.6655 1.52412 7.54957 1.70238 7.49931 1.90319C7.45615 2.07925 7.36204 2.23867 7.22875 2.36152C7.09546 2.48437 6.92891 2.56519 6.74993 2.59387C6.26114 2.67563 5.60357 1.96377 5.11547 2.04957C4.98548 2.06998 4.86135 2.1179 4.75136 2.19011C4.64136 2.26233 4.54804 2.35717 4.47762 2.46833C4.4072 2.57948 4.36131 2.70437 4.343 2.83467C4.3247 2.96497 4.3344 3.09768 4.37147 3.22393C4.41697 3.38314 4.41906 3.55161 4.37753 3.7119C4.336 3.87218 4.25236 4.01845 4.13527 4.13553C4.01819 4.25261 3.87193 4.33625 3.71164 4.37777C3.55136 4.4193 3.38288 4.41721 3.22368 4.37171C3.02464 4.31483 2.8123 4.32611 2.6204 4.40375C2.42851 4.48138 2.26806 4.62092 2.16456 4.80019C2.06106 4.97947 2.02044 5.18819 2.04916 5.39319C2.07788 5.59819 2.17428 5.78772 2.32306 5.93165C2.44206 6.04678 2.52811 6.19164 2.57228 6.35121C2.61646 6.51079 2.61715 6.67927 2.5743 6.83921C2.53144 6.99914 2.4466 7.1447 2.32855 7.26081C2.21051 7.37692 2.06356 7.45935 1.90294 7.49955C1.70213 7.54981 1.52388 7.66575 1.39651 7.82893C1.26913 7.99211 1.19995 8.19318 1.19995 8.40019C1.19995 8.60719 1.26913 8.80826 1.39651 8.97145C1.52388 9.13463 1.70213 9.25056 1.90294 9.30083C2.06356 9.34103 2.21051 9.42345 2.32855 9.53956C2.4466 9.65566 2.53144 9.80123 2.5743 9.96116C2.61715 10.1211 2.61646 10.2896 2.57228 10.4491C2.52811 10.6087 2.44206 10.7536 2.32306 10.8687C2.17428 11.0126 2.07788 11.2022 2.04916 11.4072C2.02044 11.6122 2.06106 11.8209 2.16456 12.0002C2.26806 12.1794 2.4285 12.319 2.6204 12.3966C2.8123 12.4743 3.02464 12.4855 3.22368 12.4287C3.38288 12.3832 3.55136 12.3811 3.71164 12.4226C3.87193 12.4641 4.01819 12.5478 4.13527 12.6648C4.25235 12.7819 4.33599 12.9282 4.37752 13.0885C4.41905 13.2488 4.41696 13.4172 4.37147 13.5764C4.31459 13.7755 4.32586 13.9878 4.4035 14.1797C4.48113 14.3716 4.62067 14.5321 4.79994 14.6356C4.97922 14.7391 5.18794 14.7797 5.39295 14.751C5.59795 14.7223 5.78748 14.6258 5.93141 14.4771C6.04654 14.3581 6.1914 14.272 6.35097 14.2278C6.51055 14.1837 6.67903 14.183 6.83897 14.2258C6.9989 14.2687 7.14447 14.3535 7.26057 14.4716C7.37668 14.5896 7.45911 14.7366 7.49931 14.8972C7.54957 15.098 7.6655 15.2763 7.82868 15.4036C7.99186 15.531 8.19293 15.6002 8.39994 15.6002C8.60694 15.6002 8.80801 15.531 8.97119 15.4036C9.13438 15.2763 9.25031 15.098 9.30057 14.8972C9.34077 14.7366 9.4232 14.5896 9.53931 14.4716C9.65542 14.3535 9.80098 14.2687 9.96092 14.2258C10.1209 14.183 10.2893 14.1837 10.4489 14.2278C10.6085 14.272 10.7534 14.3581 10.8685 14.4771C11.0124 14.6258 11.2019 14.7222 11.4069 14.751C11.612 14.7797 11.8207 14.7391 11.9999 14.6356C12.1792 14.5321 12.3187 14.3716 12.3964 14.1797C12.474 13.9878 12.4853 13.7755 12.4284 13.5764ZM8.39996 11.4722C7.79237 11.4722 7.19843 11.292 6.69324 10.9545C6.18806 10.6169 5.79431 10.1371 5.5618 9.5758C5.32929 9.01446 5.26845 8.39679 5.38698 7.80088C5.50552 7.20497 5.7981 6.65759 6.22772 6.22796C6.65735 5.79834 7.20473 5.50576 7.80064 5.38722C8.39655 5.26869 9.01423 5.32952 9.57556 5.56204C10.1369 5.79455 10.6167 6.18829 10.9542 6.69348C11.2918 7.19867 11.472 7.79261 11.472 8.4002C11.472 9.21494 11.1483 9.99632 10.5722 10.5724C9.99608 11.1485 9.2147 11.4722 8.39996 11.4722Z" fill="#1547BA"/>
<path d="M22.4295 16.7715C22.5188 16.7228 22.5966 16.6555 22.6578 16.5743C22.719 16.4931 22.7622 16.3998 22.7845 16.3005C22.8068 16.2013 22.8076 16.0985 22.787 15.9989C22.7663 15.8993 22.7247 15.8053 22.6648 15.7231C22.4449 15.4094 21.6965 15.4391 21.474 15.1273C21.3918 15.0138 21.345 14.8786 21.3393 14.7386C21.3336 14.5986 21.3693 14.46 21.4419 14.3402C21.5242 14.203 21.5583 14.0422 21.5387 13.8834C21.5191 13.7246 21.447 13.5769 21.3339 13.4638C21.2208 13.3507 21.0731 13.2786 20.9143 13.259C20.7555 13.2394 20.5947 13.2735 20.4575 13.3558C20.3477 13.4216 20.2224 13.4568 20.0944 13.4579C19.9664 13.459 19.8405 13.4258 19.7297 13.3618C19.6188 13.2978 19.5271 13.2053 19.4641 13.094C19.401 12.9826 19.3689 12.8564 19.371 12.7285C19.3736 12.5685 19.3227 12.4122 19.2264 12.2845C19.13 12.1568 18.9938 12.0649 18.8392 12.0235C18.6847 11.9821 18.5207 11.9935 18.3734 12.0559C18.2261 12.1184 18.1039 12.2283 18.0262 12.3682C17.964 12.48 17.8731 12.5732 17.7628 12.6381C17.6525 12.703 17.5269 12.7373 17.3989 12.7373C17.2709 12.7373 17.1453 12.703 17.035 12.6381C16.9247 12.5732 16.8338 12.48 16.7716 12.3682C16.6939 12.2283 16.5717 12.1184 16.4244 12.0559C16.2771 11.9935 16.1131 11.9821 15.9586 12.0235C15.804 12.0649 15.6678 12.1568 15.5714 12.2845C15.4751 12.4122 15.4242 12.5685 15.4268 12.7285C15.4289 12.8564 15.3968 12.9826 15.3337 13.094C15.2707 13.2053 15.179 13.2978 15.0681 13.3618C14.9573 13.4258 14.8314 13.459 14.7034 13.4579C14.5754 13.4569 14.4501 13.4216 14.3403 13.3558C14.2031 13.2735 14.0423 13.2394 13.8835 13.259C13.7247 13.2786 13.577 13.3507 13.4639 13.4638C13.3507 13.5769 13.2787 13.7246 13.2591 13.8834C13.2395 14.0422 13.2736 14.203 13.3559 14.3402C13.4285 14.46 13.4642 14.5986 13.4585 14.7386C13.4528 14.8786 13.4059 15.0138 13.3238 15.1273C13.1014 15.4391 12.3529 15.4094 12.133 15.7231C12.0732 15.8053 12.0315 15.8993 12.0109 15.9989C11.9902 16.0985 11.991 16.2013 12.0133 16.3005C12.0356 16.3998 12.0787 16.4931 12.14 16.5743C12.2012 16.6555 12.279 16.7228 12.3682 16.7715C12.4801 16.8336 12.5733 16.9246 12.6382 17.0349C12.7031 17.1452 12.7374 17.2708 12.7374 17.3988C12.7374 17.5268 12.7031 17.6524 12.6382 17.7627C12.5733 17.873 12.4801 17.964 12.3682 18.0261C12.2284 18.1038 12.1185 18.226 12.056 18.3733C11.9936 18.5206 11.9822 18.6846 12.0236 18.8391C12.065 18.9937 12.1569 19.1299 12.2846 19.2263C12.4123 19.3226 12.5686 19.3735 12.7286 19.3709C12.8565 19.3688 12.9827 19.4009 13.0941 19.464C13.2054 19.527 13.2979 19.6187 13.3619 19.7296C13.4259 19.8404 13.4591 19.9663 13.458 20.0943C13.457 20.2223 13.4217 20.3476 13.3559 20.4574C13.2736 20.5946 13.2395 20.7554 13.2591 20.9142C13.2787 21.073 13.3508 21.2207 13.4639 21.3338C13.577 21.4469 13.7247 21.519 13.8835 21.5386C14.0423 21.5582 14.2031 21.5241 14.3403 21.4418C14.4501 21.376 14.5754 21.3407 14.7034 21.3397C14.8314 21.3386 14.9573 21.3718 15.0681 21.4358C15.179 21.4998 15.2707 21.5922 15.3337 21.7036C15.3968 21.815 15.429 21.9411 15.4268 22.0691C15.4242 22.2291 15.4751 22.3853 15.5714 22.5131C15.6678 22.6408 15.8041 22.7327 15.9586 22.7741C16.1131 22.8155 16.2771 22.8041 16.4244 22.7416C16.5717 22.6792 16.6939 22.5693 16.7716 22.4295C16.8338 22.3176 16.9247 22.2244 17.035 22.1595C17.1453 22.0946 17.2709 22.0603 17.3989 22.0603C17.5269 22.0603 17.6525 22.0946 17.7628 22.1595C17.8731 22.2244 17.9641 22.3176 18.0262 22.4294C18.1039 22.5693 18.2261 22.6792 18.3734 22.7417C18.5207 22.8041 18.6847 22.8155 18.8392 22.7741C18.9938 22.7327 19.13 22.6408 19.2264 22.5131C19.3227 22.3854 19.3736 22.2291 19.371 22.0691C19.3689 21.9411 19.401 21.815 19.4641 21.7036C19.5271 21.5922 19.6188 21.4998 19.7297 21.4358C19.8405 21.3718 19.9664 21.3386 20.0944 21.3397C20.2224 21.3407 20.3477 21.376 20.4575 21.4418C20.5947 21.5241 20.7555 21.5582 20.9143 21.5386C21.0731 21.519 21.2208 21.4469 21.3339 21.3338C21.4471 21.2207 21.5191 21.073 21.5387 20.9142C21.5583 20.7554 21.5242 20.5946 21.4419 20.4574C21.3761 20.3476 21.3408 20.2223 21.3398 20.0943C21.3387 19.9663 21.3719 19.8404 21.4359 19.7296C21.4999 19.6187 21.5924 19.527 21.7037 19.464C21.8151 19.4009 21.9413 19.3687 22.0692 19.3709C22.2292 19.3735 22.3855 19.3226 22.5132 19.2263C22.6409 19.1299 22.7328 18.9937 22.7742 18.8391C22.8156 18.6846 22.8042 18.5206 22.7418 18.3733C22.6793 18.226 22.5694 18.1038 22.4295 18.0261C22.3177 17.9639 22.2245 17.873 22.1596 17.7627C22.0947 17.6524 22.0604 17.5268 22.0604 17.3988C22.0604 17.2708 22.0947 17.1452 22.1596 17.0349C22.2245 16.9246 22.3177 16.8337 22.4295 16.7715ZM17.3989 19.7988C16.9242 19.7988 16.4602 19.658 16.0655 19.3943C15.6709 19.1306 15.3633 18.7558 15.1816 18.3172C15 17.8787 14.9524 17.3961 15.045 16.9306C15.1376 16.465 15.3662 16.0374 15.7019 15.7018C16.0375 15.3661 16.4651 15.1375 16.9307 15.0449C17.3963 14.9523 17.8788 14.9998 18.3174 15.1815C18.7559 15.3631 19.1307 15.6708 19.3944 16.0654C19.6582 16.4601 19.7989 16.9241 19.7989 17.3988C19.7989 18.0353 19.5461 18.6458 19.096 19.0959C18.6459 19.5459 18.0354 19.7988 17.3989 19.7988Z" fill="#1DBD97"/>
</svg>
