<svg width="48" height="48" viewBox="0 0 48 48" fill="none" xmlns="http://www.w3.org/2000/svg">
<path d="M22.6 43.7969C20.3 43.3969 18.0333 42.6052 15.8 41.4219C13.5667 40.2385 11.575 38.6552 9.825 36.6719C8.075 34.6885 6.66667 32.2969 5.6 29.4969C4.53333 26.6969 4 23.4469 4 19.7469V19.2469C4 18.8802 4.14167 18.5552 4.425 18.2719C4.70833 17.9885 5.03333 17.8469 5.4 17.8469H5.9C7.66667 17.8469 9.55 18.1885 11.55 18.8719C13.55 19.5552 15.3167 20.4302 16.85 21.4969C17.1167 18.8635 17.7833 16.1385 18.85 13.3219C19.9167 10.5052 21.2167 7.98021 22.75 5.74688C23.0833 5.28021 23.5 5.04688 24 5.04688C24.5 5.04688 24.9167 5.28021 25.25 5.74688C26.7833 7.98021 28.0833 10.5052 29.15 13.3219C30.2167 16.1385 30.8833 18.8635 31.15 21.4969C32.6833 20.4969 34.45 19.6385 36.45 18.9219C38.45 18.2052 40.3333 17.8469 42.1 17.8469H42.6C42.9667 17.8469 43.2917 17.9885 43.575 18.2719C43.8583 18.5552 44 18.8802 44 19.2469V19.7469C44 23.4469 43.4667 26.6969 42.4 29.4969C41.3333 32.2969 39.925 34.6885 38.175 36.6719C36.425 38.6552 34.4333 40.2385 32.2 41.4219C29.9667 42.6052 27.7 43.3969 25.4 43.7969C25.0333 43.8635 24.5667 43.8969 24 43.8969C23.4333 43.8969 22.9667 43.8635 22.6 43.7969ZM24.4 40.9469C24.0333 34.7802 22.225 30.0969 18.975 26.8969C15.725 23.6969 11.75 21.6969 7.05 20.8969C6.98333 20.8969 6.98333 20.8969 7.05 20.8969C7.48333 27.2635 9.36667 32.0385 12.7 35.2219C16.0333 38.4052 19.9333 40.3135 24.4 40.9469C24.4333 40.9802 24.425 40.9885 24.375 40.9719C24.325 40.9552 24.3333 40.9469 24.4 40.9469ZM19.75 23.3969C20.5167 24.0635 21.2917 24.8969 22.075 25.8969C22.8583 26.8969 23.4833 27.8302 23.95 28.6969C24.4167 27.8302 25.0583 26.8969 25.875 25.8969C26.6917 24.8969 27.4833 24.0635 28.25 23.3969C28.4167 21.1635 28.075 18.8635 27.225 16.4969C26.375 14.1302 25.3 11.7135 24 9.24688C23.9667 9.21354 23.9667 9.21354 24 9.24688C22.6667 11.7469 21.5833 14.1635 20.75 16.4969C19.9167 18.8302 19.5833 21.1302 19.75 23.3969ZM25.65 31.8969C26.05 33.1635 26.4 34.4385 26.7 35.7219C27 37.0052 27.2333 38.4635 27.4 40.0969C28.9667 39.5302 30.5167 38.7719 32.05 37.8219C33.5833 36.8719 34.975 35.6302 36.225 34.0969C37.475 32.5635 38.525 30.7135 39.375 28.5469C40.225 26.3802 40.75 23.8302 40.95 20.8969C40.95 20.8302 40.95 20.8302 40.95 20.8969C37.4167 21.4635 34.3 22.7219 31.6 24.6719C28.9 26.6219 26.9167 29.0302 25.65 31.8969Z" fill="#194AB9"/>
</svg>
