<svg width="60" height="60" viewBox="0 0 60 60" fill="none" xmlns="http://www.w3.org/2000/svg">
<g id="noun-employees-2389845 1">
<g id="Group">
<path id="Vector" d="M23.16 28.765C23.16 33.515 26.2 37.315 29.905 37.315C33.61 37.315 36.65 33.42 36.65 28.765C36.65 24.395 33.99 21.545 29.905 21.545C25.82 21.545 23.16 24.395 23.16 28.765Z" fill="#1DBD97"/>
<path id="Vector_2" d="M34.845 39.69C31.615 38.835 28.385 38.835 25.155 39.69C23.445 40.165 14.8 42.635 14.8 46.53V50.52C14.8 51.755 15.845 52.8 17.08 52.8H42.825C44.06 52.8 45.105 51.755 45.105 50.52V46.53C45.105 42.635 34.94 39.785 34.845 39.69Z" fill="#1DBD97"/>
<path id="Vector_3" d="M21.26 28.765C21.26 26.485 21.925 24.49 22.97 22.97C20.975 22.685 18.885 22.875 16.985 23.445C16.035 23.73 8.14999 25.915 8.14999 29.43V33.42C8.14999 34.56 9.09999 35.51 10.24 35.51H23.35C22.02 33.61 21.26 31.33 21.26 28.765Z" fill="#1547BA"/>
<path id="Vector_4" d="M38.835 20.88C42.065 20.88 44.725 17.555 44.725 13.47C44.725 9.67001 42.445 7.20001 38.835 7.20001C35.225 7.20001 32.945 9.67001 32.945 13.47C32.945 17.555 35.605 20.88 38.835 20.88Z" fill="#1547BA"/>
<path id="Vector_5" d="M21.07 20.88C24.3 20.88 26.96 17.555 26.96 13.47C26.96 9.67001 24.68 7.20001 21.07 7.20001C17.46 7.20001 15.18 9.67001 15.18 13.47C15.18 17.555 17.84 20.88 21.07 20.88Z" fill="#1547BA"/>
<path id="Vector_6" d="M43.015 23.445C41.02 22.875 38.93 22.78 36.935 22.97C38.075 24.49 38.645 26.485 38.645 28.765C38.645 31.33 37.885 33.61 36.65 35.415H49.76C50.9 35.415 51.85 34.465 51.85 33.325V29.335C51.85 26.01 44.535 23.825 43.015 23.445Z" fill="#1547BA"/>
</g>
</g>
</svg>
