<svg width="60" height="60" viewBox="0 0 60 60" fill="none" xmlns="http://www.w3.org/2000/svg">
<g id="noun-skills-2773670 1">
<g id="Group">
<g id="Group_2">
<g id="Group_3">
<path id="Vector" d="M35.0187 40.9981C33.5525 41.844 31.8044 42.4079 29.9999 42.4079C28.1954 42.4079 26.5036 41.9004 25.0375 41.0545C22.951 42.0131 21.372 43.9868 21.0901 46.3553L20.4698 51.7688C20.357 52.4455 20.8081 53.1222 21.5412 53.2914C24.1916 53.8553 27.0676 54.1373 30.0563 54.1373C33.045 54.1373 35.8646 53.8553 38.5714 53.2914C39.2481 53.1786 39.6992 52.5019 39.5864 51.7688L38.9661 46.3553C38.6841 43.9304 37.1052 41.9568 35.0187 40.9981Z" fill="#1DBD97"/>
<path id="Vector_2" d="M30 38.968C33.4569 38.968 36.2594 36.1656 36.2594 32.7086C36.2594 29.2516 33.4569 26.4492 30 26.4492C26.543 26.4492 23.7405 29.2516 23.7405 32.7086C23.7405 36.1656 26.543 38.968 30 38.968Z" fill="#1DBD97"/>
<path id="Vector_3" d="M52.6127 28.5357C50.6954 28.5357 49.1165 29.8327 48.609 31.5808H41.5601C41.3345 29.2124 40.4322 27.0695 38.9661 25.3214L43.9285 20.3589C44.5488 20.6973 45.2255 20.9228 45.9586 20.9228C48.2706 20.9228 50.1315 19.0619 50.1315 16.7499C50.1315 14.4379 48.2706 12.577 45.9586 12.577C43.6465 12.577 41.7856 14.4379 41.7856 16.7499C41.7856 17.483 42.0112 18.1597 42.3495 18.78L37.3871 23.7424C35.639 22.3326 33.4961 21.374 31.1841 21.1484V14.0995C32.9322 13.592 34.2292 12.013 34.2292 10.0957C34.2292 7.7837 32.3683 5.92279 30.0563 5.92279C27.7442 5.92279 25.8833 7.7837 25.8833 10.0957C25.8833 12.013 27.1803 13.592 28.9284 14.0995V21.1484C26.56 21.374 24.4171 22.2762 22.7254 23.7424L17.6502 18.7236C17.9885 18.1033 18.2141 17.4266 18.2141 16.6935C18.2141 14.3815 16.3532 12.5206 14.0412 12.5206C11.7291 12.5206 9.86821 14.3815 9.86821 16.6935C9.86821 19.0055 11.7291 20.8665 14.0412 20.8665C14.7742 20.8665 15.4509 20.6409 16.0712 20.3025L21.0901 25.3214C19.6803 27.0695 18.7216 29.156 18.4961 31.5244H11.3908C10.8833 29.7763 9.3043 28.4793 7.387 28.4793C5.07496 28.4793 3.21405 30.3402 3.21405 32.6522C3.21405 34.9643 5.07496 36.8252 7.387 36.8252C9.3043 36.8252 10.8833 35.5282 11.3908 33.78H18.4397C18.5525 35.2462 18.9472 36.656 19.6239 37.953C19.8495 38.3477 20.2442 38.5733 20.6389 38.5733C20.8081 38.5733 20.9773 38.5169 21.1465 38.4605C21.7104 38.1786 21.9359 37.5019 21.5976 36.9379C20.9209 35.6409 20.5825 34.2312 20.5825 32.7086C20.5825 27.5206 24.8119 23.2913 29.9999 23.2913C35.1879 23.2913 39.4172 27.5206 39.4172 32.7086C39.4172 34.2312 39.0789 35.6409 38.4022 36.9379C38.1202 37.5019 38.3458 38.1786 38.8533 38.4605C39.4172 38.7425 40.0939 38.5169 40.3759 38.0094C41.0525 36.7124 41.4473 35.359 41.5601 33.8928H48.609C49.1165 35.6409 50.6954 36.9379 52.6127 36.9379C54.9248 36.9379 56.7857 35.077 56.7857 32.765C56.7857 30.453 54.9248 28.5357 52.6127 28.5357Z" fill="#1547BA"/>
</g>
</g>
</g>
</g>
</svg>
