<svg width="60" height="60" viewBox="0 0 60 60" fill="none" xmlns="http://www.w3.org/2000/svg">
<g id="noun-cybersecurity-6011333 1">
<g id="Vector">
<path fill-rule="evenodd" clip-rule="evenodd" d="M16.0512 29.6021H6.38535C6.52483 30.1067 6.52483 30.6387 6.38535 31.1433H16.0642C16.0556 30.8957 16.0512 30.6479 16.0512 30.3998V29.6021ZM12.5784 26.7504H16.0512V25.211H12.951L10.0681 21.6791C10.0198 21.7345 9.96905 21.7881 9.91643 21.8399C9.59295 22.1577 9.19937 22.398 8.76622 22.542L11.9345 26.4185C12.0066 26.5209 12.1028 26.6047 12.2149 26.6625C12.327 26.7203 12.4518 26.7504 12.5784 26.7504ZM23.0447 14.9923V15.994L24.614 15.5775V14.5508C24.6137 14.4025 24.57 14.2574 24.4879 14.1329C24.4059 14.0085 24.2891 13.91 24.1516 13.8493L18.6797 10.751C18.4599 11.2327 18.1122 11.6473 17.6732 11.9512L23.0447 14.9923ZM29.2767 8.4589V14.3279L29.9663 14.1452L30.8429 14.3797V8.4589C30.3302 8.59611 29.7895 8.59611 29.2767 8.4589ZM35.5093 14.5508V15.6286L37.0755 16.0488V14.9953L42.4471 11.9506C42.3062 11.8535 42.1742 11.7445 42.0527 11.6248C41.7962 11.3726 41.5888 11.0765 41.4405 10.751L35.968 13.8493C35.8312 13.9105 35.7152 14.0093 35.6338 14.1337C35.5525 14.2581 35.5093 14.4029 35.5093 14.5508ZM47.0485 25.2098H43.882V26.7504H47.4236C47.5502 26.7504 47.675 26.7203 47.7871 26.6625C47.8992 26.6047 47.9954 26.5209 48.0675 26.4185L51.2333 22.542C50.8 22.3976 50.4064 22.1569 50.0831 21.8386C50.0305 21.7869 49.9797 21.7333 49.9314 21.6779L47.0485 25.2098ZM53.6142 29.6021H43.882H43.8796V30.3998C43.8796 30.6474 43.8752 30.8953 43.8666 31.1433H53.6142C53.4747 30.6387 53.4747 30.1067 53.6142 29.6021ZM47.4212 33.995H43.549V33.9938C43.485 34.3133 43.4118 34.6308 43.3292 34.9462L43.3168 34.9925C43.2677 35.1748 43.2153 35.3554 43.1596 35.5344H47.051L49.9339 39.0663C49.9822 39.0109 50.0329 38.9573 50.0856 38.9056C50.4083 38.588 50.801 38.3478 51.2333 38.2034L48.065 34.3269C47.993 34.2245 47.8968 34.1408 47.7846 34.083C47.6725 34.0252 47.5478 33.995 47.4212 33.995ZM37.0749 45.0072V43.3898L37.0712 43.3929C36.9783 43.4538 36.8849 43.5147 36.7908 43.5756L36.7375 43.6103L36.6855 43.6432C36.3021 43.8884 35.9101 44.1212 35.5093 44.3416V45.4487C35.5086 45.597 35.5515 45.7424 35.6327 45.8674C35.714 45.9924 35.8302 46.0917 35.9674 46.1532L41.4399 49.2515C41.588 48.9263 41.7953 48.6303 42.0515 48.3783C42.1732 48.2584 42.3053 48.1491 42.4464 48.0519L37.0749 45.0072ZM30.8429 51.5406V46.3578C30.7552 46.3853 30.6696 46.4134 30.5845 46.4413L30.4671 46.4796L29.9663 46.6416L29.4661 46.4796L29.2767 46.4187V51.5406C29.7895 51.4034 30.3302 51.4034 30.8429 51.5406ZM24.614 45.4487V44.4439L24.609 44.4397C24.212 44.2257 23.8224 44 23.4403 43.7625L23.3864 43.729L23.3332 43.6955C23.2366 43.6346 23.14 43.5737 23.0447 43.5128V45.0072L17.6732 48.0483C18.1122 48.3521 18.4599 48.7667 18.6797 49.2485L24.1547 46.1502C24.2916 46.089 24.4078 45.9903 24.4892 45.8659C24.5707 45.7415 24.614 45.5967 24.614 45.4487ZM12.951 35.5357H16.7706C16.7155 35.3591 16.6629 35.1764 16.614 34.9937L16.6016 34.9474C16.5186 34.6316 16.4452 34.3141 16.3812 33.995H12.5759C12.4493 33.995 12.3246 34.0252 12.2124 34.083C12.1003 34.1408 12.0041 34.2245 11.9321 34.3269L8.76622 38.2034C9.19948 38.3478 9.59308 38.5885 9.91643 38.9068C9.96905 38.9585 10.0198 39.0121 10.0681 39.0675L12.951 35.5357ZM45.5217 50.576C45.4905 50.8872 45.3506 51.1782 45.1257 51.3993C44.9981 51.5249 44.8466 51.6245 44.6798 51.6924C44.5131 51.7604 44.3343 51.7952 44.1538 51.7951C43.8358 51.795 43.5278 51.6865 43.282 51.4881C43.0363 51.2896 42.8681 51.0135 42.8061 50.7067C42.7442 50.4 42.7922 50.0816 42.9422 49.8058C43.0921 49.53 43.3346 49.3138 43.6284 49.1942C43.9221 49.0746 44.249 49.0588 44.5532 49.1497C44.8575 49.2405 45.1203 49.4323 45.2969 49.6924C45.4735 49.9524 45.5529 50.2647 45.5217 50.576ZM17.3319 50.5759C17.3007 50.8871 17.1607 51.1782 16.9359 51.3993C16.8084 51.5249 16.657 51.6246 16.4904 51.6925C16.3237 51.7604 16.145 51.7953 15.9646 51.7951C15.6466 51.7952 15.3384 51.6868 15.0926 51.4884C14.8468 51.29 14.6785 51.0139 14.6164 50.7072C14.5543 50.4004 14.6023 50.082 14.7521 49.8061C14.902 49.5302 15.1445 49.314 15.4382 49.1943C15.732 49.0746 16.0589 49.0588 16.3632 49.1496C16.6674 49.2404 16.9303 49.4322 17.107 49.6922C17.2836 49.9523 17.3631 50.2646 17.3319 50.5759ZM45.2159 8.69956C45.4178 8.94094 45.5283 9.24367 45.5287 9.55622V9.55804C45.5288 9.7355 45.4933 9.91122 45.4242 10.0752C45.3552 10.2391 45.2539 10.3881 45.1263 10.5135C44.9016 10.7345 44.606 10.872 44.2898 10.9027C43.9736 10.9334 43.6564 10.8553 43.3922 10.6817C43.128 10.5081 42.9331 10.2498 42.8407 9.95079C42.7483 9.65175 42.7642 9.33046 42.8856 9.04163C43.007 8.75281 43.2264 8.51431 43.5065 8.36676C43.7866 8.21921 44.1101 8.17174 44.4217 8.23242C44.7334 8.2931 45.0141 8.45819 45.2159 8.69956ZM17.0253 8.69979C17.2274 8.94099 17.3382 9.24365 17.3389 9.55622L17.3401 9.55804C17.3403 9.73552 17.3049 9.91128 17.2358 10.0752C17.1668 10.2392 17.0655 10.3881 16.9377 10.5135C16.7133 10.7348 16.4179 10.8727 16.1017 10.9037C15.7855 10.9348 15.4682 10.8571 15.2037 10.6838C14.9392 10.5105 14.744 10.2524 14.6513 9.95347C14.5586 9.65451 14.5741 9.33318 14.6952 9.04421C14.8163 8.75523 15.0355 8.51649 15.3154 8.36864C15.5954 8.2208 15.9188 8.173 16.2306 8.23338C16.5423 8.29376 16.8232 8.45859 17.0253 8.69979ZM31.1214 4.77939C31.3231 5.02096 31.4334 5.32384 31.4335 5.63643C31.4339 5.81403 31.3985 5.98995 31.3295 6.15404C31.2604 6.31813 31.159 6.46714 31.0311 6.59248C30.8064 6.81351 30.5107 6.95106 30.1945 6.9817C29.8782 7.01234 29.5609 6.93418 29.2967 6.76053C29.0325 6.58688 28.8376 6.32848 28.7453 6.02936C28.653 5.73023 28.669 5.40889 28.7906 5.12007C28.9122 4.83125 29.1318 4.59282 29.412 4.44541C29.6922 4.29799 30.0157 4.2507 30.3274 4.3116C30.6391 4.3725 30.9197 4.53781 31.1214 4.77939ZM31.4271 54.4951C31.3959 54.8063 31.256 55.0973 31.0311 55.3185C30.9038 55.4442 30.7524 55.5439 30.5857 55.6119C30.419 55.6798 30.2402 55.7146 30.0598 55.7143C29.7418 55.7144 29.4337 55.606 29.1878 55.4076C28.942 55.2092 28.7737 54.9331 28.7116 54.6264C28.6495 54.3196 28.6975 54.0011 28.8474 53.7253C28.9972 53.4494 29.2397 53.2332 29.5335 53.1135C29.8272 52.9938 30.1541 52.978 30.4584 53.0688C30.7627 53.1596 31.0255 53.3513 31.2022 53.6114C31.3788 53.8715 31.4583 54.1838 31.4271 54.4951ZM6.94512 18.7267C7.1908 18.5284 7.49879 18.42 7.8166 18.42C7.99702 18.4198 8.1757 18.4547 8.34238 18.5226C8.50906 18.5906 8.66046 18.6902 8.78789 18.8158C9.01261 19.0369 9.15245 19.3278 9.18358 19.6389C9.21472 19.95 9.13522 20.2621 8.95864 20.522C8.78207 20.782 8.51933 20.9736 8.2152 21.0644C7.91107 21.1551 7.58437 21.1393 7.29076 21.0196C6.99715 20.9 6.7548 20.6839 6.605 20.4082C6.4552 20.1325 6.40722 19.8142 6.46924 19.5076C6.53126 19.201 6.69944 18.925 6.94512 18.7267ZM6.94512 39.929C7.1908 39.7306 7.49879 39.6223 7.8166 39.6223C7.997 39.6222 8.17564 39.6572 8.3423 39.7251C8.50897 39.793 8.66038 39.8926 8.78789 40.0181C9.01261 40.2392 9.15245 40.53 9.18358 40.8412C9.21472 41.1523 9.13522 41.4644 8.95864 41.7243C8.78207 41.9842 8.51933 42.1759 8.2152 42.2666C7.91107 42.3574 7.58437 42.3416 7.29076 42.2219C6.99715 42.1022 6.7548 41.8862 6.605 41.6104C6.4552 41.3347 6.40722 41.0165 6.46924 40.7098C6.53126 40.4032 6.69944 40.1273 6.94512 39.929ZM52.3208 18.4263C52.6373 18.457 52.9331 18.5946 53.1579 18.8158C53.2856 18.9412 53.387 19.0901 53.456 19.2541C53.5251 19.418 53.5605 19.5938 53.5603 19.7713C53.5604 20.0841 53.4502 20.3872 53.2485 20.629C53.0469 20.8708 52.7662 21.0364 52.4543 21.0975C52.1425 21.1585 51.8187 21.1113 51.5383 20.9639C51.2579 20.8165 51.0381 20.578 50.9164 20.289C50.7947 20 50.7786 19.6785 50.8709 19.3792C50.9632 19.0799 51.1581 18.8213 51.4225 18.6476C51.6869 18.4738 52.0044 18.3956 52.3208 18.4263ZM52.3209 39.6285C52.6373 39.6592 52.9331 39.7969 53.1579 40.0181C53.2856 40.1436 53.3869 40.2926 53.4559 40.4567C53.525 40.6208 53.5604 40.7966 53.5603 40.9741C53.5602 41.2869 53.4499 41.59 53.2482 41.8317C53.0464 42.0734 52.7657 42.2388 52.4539 42.2998C52.142 42.3608 51.8183 42.3135 51.538 42.166C51.2576 42.0185 51.0379 41.78 50.9162 41.491C50.7946 41.202 50.7786 40.8805 50.871 40.5812C50.9633 40.282 51.1583 40.0234 51.4227 39.8497C51.6871 39.676 52.0045 39.5978 52.3209 39.6285ZM30.4625 31.2053C30.4508 31.0925 30.3998 30.987 30.3179 30.9071C30.2718 30.8617 30.2169 30.8257 30.1566 30.8013C30.0963 30.7768 30.0316 30.7644 29.9663 30.7646C29.851 30.7646 29.7392 30.8041 29.6501 30.8762C29.5611 30.9482 29.5001 31.0485 29.4778 31.1598C29.4554 31.2711 29.473 31.3866 29.5276 31.4865C29.5821 31.5865 29.6702 31.6648 29.7769 31.708C29.8835 31.7512 30.0021 31.7567 30.1124 31.7235C30.2227 31.6904 30.3179 31.6206 30.3817 31.5261C30.4456 31.4316 30.4741 31.3182 30.4625 31.2053ZM56.6178 29.0274C56.9342 29.0581 57.23 29.1958 57.4548 29.417C57.5825 29.5424 57.6838 29.6915 57.7529 29.8555C57.8219 30.0196 57.8574 30.1954 57.8572 30.373C57.8571 30.6858 57.7468 30.9888 57.545 31.2306C57.3433 31.4723 57.0626 31.6377 56.7507 31.6987C56.4389 31.7596 56.1152 31.7123 55.8348 31.5649C55.5544 31.4174 55.3347 31.1788 55.2131 30.8899C55.0915 30.6009 55.0755 30.2794 55.1678 29.9801C55.2602 29.6808 55.4551 29.4223 55.7195 29.2486C55.9839 29.0749 56.3014 28.9967 56.6178 29.0274ZM2.64518 29.3278C2.89086 29.1295 3.19884 29.0211 3.51665 29.0212C3.69705 29.0211 3.87569 29.056 4.04236 29.1239C4.20902 29.1919 4.36044 29.2914 4.48795 29.417C4.71266 29.638 4.8525 29.9289 4.88364 30.24C4.91477 30.5511 4.83528 30.8632 4.6587 31.1232C4.48212 31.3831 4.21938 31.5748 3.91526 31.6655C3.61113 31.7562 3.28442 31.7404 2.99081 31.6208C2.6972 31.5011 2.45485 31.285 2.30505 31.0093C2.15525 30.7336 2.10728 30.4153 2.1693 30.1087C2.23132 29.8021 2.39949 29.5261 2.64518 29.3278Z" fill="#1547BA"/>
<path fill-rule="evenodd" clip-rule="evenodd" d="M19.9463 38.4415C21.0801 40.0197 22.5254 41.3569 24.1961 42.3735C24.2311 42.3912 24.2646 42.4116 24.2964 42.4344C26.0733 43.5091 27.9775 44.3654 29.9663 44.9841C32.0249 44.3468 33.9918 43.4522 35.8189 42.3223C35.8505 42.2999 35.8835 42.2796 35.9179 42.2615C37.515 41.2623 38.898 39.9655 39.9888 38.444C40.8057 37.272 41.409 35.9691 41.7717 34.5936L41.7828 34.5528C42.1293 33.196 42.2978 31.8011 42.2843 30.4022V19.0686L36.1098 17.4189L36.0615 17.4055L29.9663 15.776L24.0568 17.3562L24.0079 17.369L17.6509 19.0686V30.3998C17.6374 31.7985 17.8057 33.1931 18.1517 34.5498C18.1558 34.5636 18.1595 34.5776 18.1628 34.5918C18.5261 35.967 19.1296 37.2696 19.9463 38.4415ZM26.3424 23.4091V26.3765H25.901C25.1464 26.3786 24.4233 26.6744 23.8898 27.1992C23.3562 27.7241 23.0555 28.4354 23.0534 29.1777V34.4688C23.0552 35.2111 23.3558 35.9226 23.8894 36.4475C24.423 36.9725 25.1463 37.2682 25.901 37.2699H34.0317C34.7863 37.2682 35.5096 36.9725 36.0433 36.4475C36.5769 35.9226 36.8775 35.2111 36.8793 34.4688V29.1777C36.8772 28.4354 36.5765 27.7241 36.0429 27.1992C35.5093 26.6744 34.7862 26.3786 34.0317 26.3765H33.5903V23.4091C33.5903 22.4637 33.2085 21.557 32.5288 20.8884C31.8492 20.2199 30.9275 19.8443 29.9663 19.8443C29.0052 19.8443 28.0834 20.2199 27.4038 20.8884C26.7242 21.557 26.3424 22.4637 26.3424 23.4091Z" fill="#1DBD97"/>
<path fill-rule="evenodd" clip-rule="evenodd" d="M34.0317 27.9171H25.901C25.5617 27.9189 25.2368 28.0523 24.9969 28.2883C24.7569 28.5243 24.6214 28.8439 24.6196 29.1777V34.4688C24.6214 34.8025 24.7569 35.1221 24.9969 35.3582C25.2368 35.5942 25.5617 35.7275 25.901 35.7293H34.0317C34.3711 35.7279 34.6961 35.5946 34.9361 35.3585C35.1761 35.1224 35.3116 34.8026 35.3131 34.4688V29.1777C35.3116 28.8438 35.1761 28.524 34.9361 28.2879C34.6961 28.0518 34.3711 27.9186 34.0317 27.9171ZM30.7513 33.7929V33.1303C31.1931 32.9518 31.5582 32.628 31.7843 32.2142C32.0104 31.8004 32.0834 31.3222 31.9909 30.8613C31.8984 30.4004 31.6462 29.9853 31.2772 29.687C30.9083 29.3887 30.4455 29.2256 29.9679 29.2256C29.4903 29.2256 29.0275 29.3887 28.6585 29.687C28.2896 29.9853 28.0373 30.4004 27.9448 30.8613C27.8524 31.3222 27.9254 31.8004 28.1515 32.2142C28.3776 32.628 28.7427 32.9518 29.1845 33.1303V33.7929C29.1902 33.9935 29.2752 34.184 29.4215 34.3239C29.5678 34.4638 29.7638 34.5421 29.9679 34.5421C30.1719 34.5421 30.3679 34.4638 30.5142 34.3239C30.6605 34.184 30.7456 33.9935 30.7513 33.7929Z" fill="#1547BA"/>
<path d="M32.0241 26.3765V23.4091C32.0147 22.8784 31.7938 22.3726 31.409 22.0006C31.0242 21.6286 30.5062 21.4201 29.9666 21.4201C29.4271 21.4201 28.9091 21.6286 28.5243 22.0006C28.1395 22.3726 27.9186 22.8784 27.9092 23.4091V26.3765H32.0241Z" fill="#1547BA"/>
</g>
</g>
</svg>
