<svg width="24" height="24" viewBox="0 0 24 24" fill="none" xmlns="http://www.w3.org/2000/svg">
<g id="twitter">
<rect id="Rectangle Copy 19" opacity="0.01" width="24" height="24" fill="#1547BA"/>
<path id="Twitter_Icon Copy 3" d="M18.9515 7.97973C18.9595 8.14971 18.9631 8.3297 18.9631 8.50968C18.961 11.5886 17.8619 14.5379 15.9118 16.6974C13.9617 18.8569 11.3235 20.046 8.58788 19.9986C6.61083 20.0007 4.67361 19.3733 3 18.1888C3.28344 18.2188 3.57487 18.2388 3.86897 18.2388C5.50783 18.2417 7.10134 17.6334 8.4004 16.509C6.84874 16.4847 5.48105 15.3569 4.99294 13.6992C5.21841 13.7511 5.44786 13.7779 5.67799 13.7792C6.00244 13.7788 6.32552 13.7318 6.63936 13.6392C4.95072 13.2717 3.72661 11.6151 3.71348 9.67958C3.71185 9.66296 3.71185 9.64619 3.71348 9.62958C4.22143 9.9393 4.78687 10.1105 5.36434 10.1295C4.35435 9.38979 3.74471 8.12598 3.74369 6.76984C3.74224 6.05568 3.91231 5.35435 4.23593 4.74002C6.1043 7.26978 8.83051 8.80069 11.7501 8.95964C11.6903 8.65766 11.6605 8.34912 11.6613 8.03972C11.6774 5.7928 13.3075 3.98512 15.3042 4.00009C16.3077 3.99718 17.2688 4.45594 17.9644 5.26998C18.7813 5.09621 19.5652 4.76468 20.2817 4.29007C20.0086 5.23089 19.44 6.02729 18.6823 6.52986C19.404 6.43202 20.1092 6.21644 20.7757 5.88992C20.2835 6.70363 19.6657 7.41144 18.9515 7.97973Z" fill="#1547BA"/>
</g>
</svg>
