<svg width="20" height="25" viewBox="0 0 20 25" fill="none" xmlns="http://www.w3.org/2000/svg">
<path d="M10.0487 21.4052C10.3884 21.4052 11.4788 20.942 13.039 19.4667C15.5176 17.1336 18.4114 13.0335 18.4114 9.1736C18.4114 6.89187 17.5251 4.70359 15.9473 3.09016C14.3695 1.47673 12.2296 0.570313 9.99833 0.570312C7.76703 0.570313 5.62712 1.47673 4.04936 3.09016C2.4716 4.70359 1.58522 6.89187 1.58522 9.1736C1.58522 15.2379 8.49269 21.2765 10.0487 21.4052ZM9.99833 4.04851C10.7913 4.04851 11.5665 4.28898 12.2258 4.7395C12.8852 5.19002 13.3991 5.83036 13.7026 6.57955C14.006 7.32874 14.0854 8.15313 13.9307 8.94847C13.776 9.7438 13.3942 10.4744 12.8334 11.0478C12.2727 11.6212 11.5583 12.0117 10.7805 12.1699C10.0028 12.3281 9.19661 12.2469 8.46398 11.9366C7.73135 11.6262 7.10516 11.1007 6.6646 10.4265C6.22404 9.75221 5.98889 8.9595 5.98889 8.14858C5.99 7.06152 6.41278 6.01931 7.16445 5.25065C7.91613 4.48198 8.9353 4.04965 9.99833 4.04851ZM19.1412 22.2115C19.1412 23.0135 15.916 24.5703 9.99833 24.5703C4.08063 24.5703 0.855469 23.0135 0.855469 22.2115C0.855469 21.6754 2.3653 20.6804 5.72886 20.1657C5.7873 20.1563 5.84392 20.1375 5.89662 20.11C7.47355 21.6325 9.01694 22.6103 9.948 22.6833H10.0654C11.3236 22.6833 13.1564 21.1007 13.8945 20.4059C13.9868 20.3201 14.0791 20.2258 14.1713 20.1314C14.203 20.142 14.2352 20.1505 14.2678 20.1572C17.6314 20.6804 19.1412 21.6754 19.1412 22.2115Z" fill="#194AB9"/>
</svg>
