<svg width="24" height="24" viewBox="0 0 24 24" fill="none" xmlns="http://www.w3.org/2000/svg">
<path d="M14.8714 19.2089L12 22.0802L9.12868 19.2089C8.9926 19.0728 9.08884 18.8402 9.28132 18.8402H11.28V15.2402H12.72V18.8402H14.7185C14.911 18.8402 15.0075 19.0728 14.8714 19.2089Z" fill="#1547BA"/>
<path d="M7.65844 8.68072L3.56884 4.59112L2.28892 5.87104C2.1526 6.00712 1.92004 5.91088 1.92004 5.7184V1.91992H5.71852C5.911 1.91992 6.00724 2.15248 5.87116 2.28856L4.59124 3.56872L8.41444 7.39192L7.65844 8.68072Z" fill="#1547BA"/>
<path d="M22.08 1.91992V5.7184C22.08 5.91088 21.8474 6.00712 21.7113 5.87104L20.4312 4.59112L16.3416 8.68072L15.5856 7.39192L19.4088 3.56872L18.1289 2.2888C17.9925 2.15248 18.089 1.91992 18.2815 1.91992H22.08Z" fill="#1547BA"/>
<path d="M17.6592 13.074L12.5998 4.4282C12.3281 3.96404 11.6719 3.96404 11.4002 4.4282L6.34079 13.074C6.06095 13.5518 6.39695 14.16 6.94055 14.16H17.0597C17.603 14.16 17.939 13.5518 17.6592 13.074ZM11.6553 6.23996H12.3449C12.5496 6.23996 12.713 6.41036 12.7046 6.61484L12.5489 10.3528C12.5438 10.4688 12.4486 10.56 12.3329 10.56H11.6673C11.5517 10.56 11.4564 10.4688 11.4516 10.3528L11.2958 6.61484C11.2872 6.41036 11.4506 6.23996 11.6553 6.23996ZM12 13.08C11.5029 13.08 11.1 12.677 11.1 12.18C11.1 11.6829 11.5029 11.28 12 11.28C12.497 11.28 12.9 11.6829 12.9 12.18C12.9 12.677 12.497 13.08 12 13.08Z" fill="#1DBD97"/>
</svg>
